<svg width="200" height="200" viewBox="0 0 200 200" fill="none" xmlns="http://www.w3.org/2000/svg">
<path d="M106.87 57.4872H107.278C109.001 57.4872 110.066 58.3267 110.474 60.0057C112.061 65.088 112.855 69.535 112.855 73.3467H112.991C121.515 68.446 128.701 65.9956 134.55 65.9956H136.386C136.885 65.9956 137.202 66.1771 137.338 66.5401V66.6762C137.248 66.9485 136.976 67.0846 136.522 67.0846H135.57C129.041 67.0846 121.515 69.7392 112.991 75.0484C113.081 77.045 113.127 78.5198 113.127 79.4727V82.5357C113.127 111.033 106.258 131.748 92.5199 144.68C86.7618 149.49 81.1169 151.896 75.5855 151.896H74.7014C69.6233 151.896 65.5427 149.49 62.4596 144.68C61.1901 142.185 60.5554 139.349 60.5554 136.172C60.5554 124.374 68.8072 110.579 85.3109 94.7877C95.3763 85.8937 102.744 79.9946 107.414 77.0904V76.5459C107.414 70.0115 106.439 64.067 104.49 58.7124V58.4402C104.852 57.8049 105.646 57.4872 106.87 57.4872ZM107.278 78.9282C100.613 84.0105 93.3814 90.318 85.5829 97.8507C71.1195 113.052 63.8878 126.008 63.8878 136.717C63.8878 143.614 66.9936 147.789 73.2052 149.241C73.7039 149.377 74.2706 149.445 74.9054 149.445H76.1296C81.8424 149.445 87.8726 145.679 94.2201 138.146C103.197 125.803 107.686 108.583 107.686 86.4836C107.595 82.2635 107.55 79.7904 107.55 79.0643L107.278 78.9282Z" fill="#C4A56C"/>
<path d="M106.694 47.0619C107.504 48.9948 107.123 52.455 105.191 53.2662C103.26 54.0773 100.51 51.9321 99.6999 49.9992C98.7636 47.7662 100.939 49.1834 102.871 48.3723C104.802 47.5612 105.695 44.6798 106.694 47.0619Z" fill="#C4A56C"/>
<path d="M106.694 47.0619C107.504 48.9948 107.123 52.455 105.191 53.2662C103.26 54.0773 100.51 51.9321 99.6999 49.9992C98.7636 47.7662 100.939 49.1834 102.871 48.3723C104.802 47.5612 105.695 44.6798 106.694 47.0619Z" fill="#C4A56C"/>
<path d="M189.014 93.892C189.289 93.8731 189.497 93.6343 189.477 93.3589C188.327 77.8636 183.173 62.9294 174.514 50.0205C165.763 36.9732 153.739 26.4524 139.646 19.5104C125.553 12.5685 109.884 9.44871 94.2059 10.4632C78.5284 11.4778 63.392 16.591 50.3108 25.2915C37.2297 33.9919 26.6623 45.9747 19.6657 60.041C12.6691 74.1074 9.48863 89.7644 10.4423 105.446C11.396 121.127 16.4505 136.283 25.1002 149.398C33.658 162.374 45.4383 172.901 59.2843 179.952C59.5304 180.077 59.8311 179.978 59.955 179.731L61.1114 177.429C61.2353 177.182 61.1355 176.881 60.8895 176.756C47.6031 169.986 36.2988 159.882 28.0857 147.429C19.7809 134.837 14.9279 120.285 14.0122 105.229C13.0965 90.1723 16.1502 75.1395 22.8679 61.6338C29.5856 48.1281 39.7317 36.623 52.2915 28.2694C64.8512 19.9157 79.3843 15.0063 94.4369 14.0322C109.49 13.0581 124.534 16.0535 138.066 22.7188C151.597 29.384 163.142 39.4855 171.544 52.0127C179.854 64.4015 184.802 78.7332 185.909 93.6037C185.929 93.8791 186.168 94.0873 186.443 94.0684L189.014 93.892Z" fill="#C4A56C"/>
<path d="M64.829 176.773L64.8622 176.71L67.0798 177.871L67.0466 177.934C66.9754 177.897 66.8762 177.855 66.7449 177.817C66.6137 177.778 66.502 177.76 66.3859 177.77C66.2697 177.78 66.1766 177.842 66.1144 177.961L63.7921 182.396C63.7341 182.507 63.736 182.619 63.7941 182.72C63.8521 182.821 63.9265 182.911 64.037 182.989C64.1433 183.075 64.2342 183.132 64.3055 183.17L64.2682 183.241L62.0505 182.08L62.0879 182.008C62.2896 182.124 62.4763 182.192 62.6479 182.211C62.8074 182.234 62.9326 182.168 63.0156 182.01L65.3544 177.543C65.4374 177.384 65.42 177.244 65.3144 177.118C65.1967 176.996 65.0349 176.881 64.829 176.773Z" fill="#C4A56C"/>
<path d="M71.3314 185.967C71.5511 186.043 71.7487 186.073 71.9127 186.064C72.0768 186.055 72.1909 185.971 72.2493 185.802L73.8885 181.062C73.9352 180.927 73.9281 180.811 73.864 180.722C73.7915 180.631 73.7018 180.562 73.5894 180.505C73.474 180.455 73.3671 180.409 73.2657 180.374L73.2891 180.306L74.8353 180.841L76.7492 186.412L78.0962 182.517C78.1429 182.382 78.1357 182.266 78.0717 182.178C77.9992 182.086 77.9095 182.017 77.7971 181.96C77.6817 181.91 77.5748 181.864 77.4734 181.829L77.4968 181.761L79.1106 182.319L79.0872 182.387C79.0027 182.358 78.8984 182.331 78.7713 182.315C78.6358 182.297 78.5143 182.293 78.4009 182.32C78.2875 182.347 78.2047 182.422 78.1608 182.549L76.3522 187.779L76.2846 187.756L73.9765 181.026L72.3169 185.825C72.2585 185.994 72.2965 186.131 72.4366 186.245C72.5767 186.36 72.7424 186.455 72.9452 186.525L72.9218 186.593L71.308 186.035L71.3314 185.967Z" fill="#C4A56C"/>
<path d="M90.5111 187.553L90.5126 187.544C90.5694 187.209 90.5821 186.867 90.5522 186.508C90.512 186.157 90.432 185.826 90.2962 185.504C90.1604 185.181 89.9701 184.913 89.7194 184.68C89.4672 184.456 89.1472 184.311 88.7682 184.247L87.9132 184.102L86.9258 189.929L87.6574 190.053C88.1775 190.141 88.6333 190.073 89.0322 189.859C89.4222 189.644 89.7464 189.337 90.0062 188.927C90.2572 188.516 90.426 188.055 90.5111 187.553ZM88.6567 184.156C89.6527 184.325 90.4042 184.706 90.895 185.288C91.3843 185.878 91.5364 186.693 91.3616 187.724C91.269 188.271 91.0443 188.741 90.6773 189.141C90.3102 189.541 89.8626 189.828 89.3507 190.013C88.8299 190.197 88.305 190.244 87.7674 190.153L85.2552 189.727L85.2687 189.648C85.4964 189.696 85.6948 189.702 85.8551 189.666C86.0139 189.638 86.1126 189.537 86.1425 189.361L86.985 184.389C87.0148 184.213 86.9549 184.085 86.8155 183.998C86.6747 183.92 86.4852 183.86 86.256 183.821L86.268 183.751L88.6567 184.156Z" fill="#C4A56C"/>
<path d="M98.9107 184.827L98.9128 184.755L101.415 184.826L101.413 184.898C101.333 184.896 101.225 184.901 101.09 184.925C100.955 184.948 100.847 184.98 100.747 185.04C100.647 185.1 100.591 185.197 100.587 185.331L100.445 190.335C100.441 190.46 100.492 190.56 100.589 190.625C100.685 190.691 100.791 190.738 100.925 190.76C101.058 190.791 101.165 190.803 101.246 190.805L101.243 190.885L98.7411 190.814L98.7434 190.734C98.9755 190.75 99.1728 190.728 99.3354 190.67C99.4889 190.621 99.5726 190.507 99.5777 190.328L99.7205 185.288C99.7256 185.109 99.6484 184.991 99.4983 184.924C99.3389 184.866 99.1431 184.834 98.9107 184.827Z" fill="#C4A56C"/>
<path d="M110.764 185L110.087 187.816L112.182 187.57L112.1 187.409L110.764 185ZM108.906 190.106C109.27 190.064 109.505 189.838 109.611 189.438L110.708 184.908L110.149 183.902L111.09 183.792L113.981 189.015C114.188 189.324 114.456 189.455 114.784 189.416L114.793 189.487L112.129 189.8L112.129 189.728C112.485 189.686 112.745 189.602 112.902 189.484C113.059 189.367 113.095 189.209 112.992 189.023L112.329 187.823L112.285 187.756L112.227 187.646L110.069 187.899L110.039 188.02L110.02 188.094L109.699 189.419C109.602 189.818 109.944 189.975 110.727 189.893L110.735 189.964L108.915 190.177L108.906 190.106Z" fill="#C4A56C"/>
<path d="M123.148 188.465C123.37 188.399 123.549 188.309 123.677 188.205C123.805 188.102 123.849 187.968 123.798 187.796L122.372 182.988C122.332 182.851 122.258 182.761 122.155 182.726C122.043 182.694 121.93 182.69 121.805 182.709C121.682 182.736 121.568 182.76 121.465 182.791L121.445 182.722L123.014 182.257L127.812 185.674L126.641 181.723C126.6 181.585 126.527 181.495 126.424 181.461C126.311 181.429 126.198 181.425 126.073 181.443C125.951 181.47 125.837 181.495 125.734 181.525L125.714 181.457L127.351 180.971L127.371 181.04C127.285 181.065 127.185 181.104 127.073 181.166C126.952 181.229 126.851 181.297 126.774 181.385C126.698 181.473 126.674 181.582 126.712 181.711L128.285 187.017L128.216 187.037L122.423 182.908L123.866 187.776C123.917 187.948 124.027 188.036 124.208 188.048C124.389 188.06 124.579 188.041 124.785 187.98L124.805 188.048L123.168 188.533L123.148 188.465Z" fill="#C4A56C"/>
<path d="M140.724 175.056L144.045 172.964L145.467 174.097L145.421 174.158L145.399 174.14C144.497 173.43 143.677 173.302 142.926 173.754L142.185 174.221L143.452 176.233L143.815 176.004C144.231 175.742 144.335 175.37 144.139 174.892L144.066 174.758L144.134 174.715L145.154 176.334L145.086 176.377C144.93 176.147 144.751 175.996 144.539 175.929C144.32 175.866 144.096 175.912 143.853 176.065L143.49 176.294L145.096 178.843C145.163 178.949 145.261 179.003 145.377 179.004C145.494 179.004 145.616 178.98 145.739 178.924C145.859 178.88 145.955 178.83 146.023 178.787L146.066 178.855L143.955 180.185L143.913 180.117C144.114 180.001 144.266 179.873 144.361 179.739C144.461 179.613 144.468 179.471 144.372 179.32L141.684 175.054C141.589 174.903 141.459 174.847 141.297 174.875C141.14 174.911 140.959 174.993 140.763 175.117L140.724 175.056Z" fill="#C4A56C"/>
<path d="M150.672 168.867L150.626 168.812L152.545 167.206L152.591 167.26C152.529 167.312 152.453 167.388 152.367 167.494C152.282 167.601 152.222 167.697 152.187 167.809C152.152 167.92 152.174 168.029 152.26 168.132L155.473 171.971C155.554 172.067 155.658 172.108 155.774 172.093C155.889 172.078 156 172.043 156.115 171.971C156.235 171.905 156.323 171.843 156.384 171.792L156.436 171.854L154.516 173.46L154.465 173.399C154.649 173.256 154.782 173.109 154.866 172.958C154.948 172.819 154.935 172.679 154.82 172.542L151.583 168.675C151.469 168.538 151.332 168.501 151.176 168.55C151.018 168.612 150.85 168.718 150.672 168.867Z" fill="#C4A56C"/>
<path d="M162.642 166.767C162.796 166.593 162.9 166.422 162.954 166.267C163.008 166.112 162.975 165.975 162.841 165.856L159.09 162.526C158.983 162.431 158.874 162.394 158.767 162.419C158.655 162.451 158.557 162.507 158.461 162.589C158.371 162.677 158.287 162.758 158.216 162.838L158.163 162.791L159.249 161.567L165.128 161.933L162.046 159.197C161.939 159.102 161.829 159.064 161.723 159.089C161.611 159.121 161.513 159.178 161.417 159.26C161.327 159.347 161.243 159.428 161.172 159.509L161.118 159.461L162.252 158.184L162.305 158.232C162.246 158.298 162.182 158.385 162.118 158.496C162.05 158.614 161.999 158.725 161.981 158.84C161.962 158.955 162 159.06 162.1 159.149L166.239 162.823L166.191 162.877L159.091 162.431L162.889 165.803C163.022 165.921 163.163 165.938 163.322 165.853C163.482 165.767 163.633 165.651 163.776 165.49L163.829 165.538L162.696 166.815L162.642 166.767Z" fill="#C4A56C"/>
<path d="M173.213 153.301C173.545 152.867 173.681 152.431 173.619 151.992C173.558 151.553 173.389 151.117 173.119 150.689L173.185 150.652L174.159 152.309L171.448 155.508L171.386 155.456L171.427 155.408C171.56 155.251 171.649 155.104 171.706 154.953C171.764 154.803 171.721 154.673 171.585 154.557L167.739 151.297C167.603 151.181 167.462 151.167 167.316 151.243C167.177 151.324 167.029 151.456 166.879 151.634L166.824 151.588L169.368 148.587L169.44 148.613L171.059 149.247L171.033 149.319L171.007 149.309C169.939 148.895 169.119 149.02 168.533 149.684L167.966 150.352L169.643 151.774L169.921 151.447C170.112 151.222 170.189 151.006 170.152 150.787C170.115 150.568 169.991 150.369 169.785 150.183L169.837 150.122L171.296 151.359L171.239 151.427C171.027 151.248 170.817 151.164 170.595 151.163C170.373 151.162 170.173 151.274 169.982 151.499L169.705 151.826L172.473 154.174L173.213 153.301Z" fill="#C4A56C"/>
<path d="M180.877 134.62L180.868 134.617C180.542 134.521 180.204 134.467 179.844 134.453C179.491 134.45 179.152 134.49 178.816 134.586C178.48 134.681 178.191 134.838 177.929 135.059C177.676 135.282 177.494 135.582 177.384 135.951L177.137 136.782L182.801 138.466L183.013 137.755C183.163 137.249 183.151 136.789 182.987 136.367C182.821 135.954 182.555 135.595 182.18 135.287C181.802 134.988 181.365 134.765 180.877 134.62ZM177.28 136.05C177.568 135.082 178.037 134.382 178.674 133.965C179.32 133.551 180.147 133.498 181.149 133.796C181.681 133.954 182.12 134.234 182.473 134.647C182.826 135.06 183.056 135.539 183.178 136.069C183.298 136.608 183.281 137.135 183.126 137.658L182.4 140.1L182.322 140.077C182.397 139.857 182.428 139.661 182.411 139.497C182.403 139.336 182.314 139.226 182.143 139.175L177.31 137.738C177.139 137.687 177.004 137.731 176.901 137.859C176.806 137.989 176.724 138.17 176.658 138.393L176.59 138.372L177.28 136.05Z" fill="#C4A56C"/>
<path d="M181.337 126.066L181.266 126.055L181.634 123.579L181.705 123.59C181.693 123.669 181.686 123.777 181.693 123.913C181.7 124.05 181.719 124.161 181.767 124.268C181.814 124.374 181.904 124.442 182.036 124.462L186.988 125.198C187.112 125.216 187.217 125.178 187.294 125.09C187.37 125.001 187.43 124.902 187.467 124.772C187.514 124.643 187.538 124.538 187.55 124.459L187.63 124.471L187.262 126.947L187.182 126.935C187.225 126.706 187.227 126.508 187.189 126.339C187.159 126.181 187.055 126.084 186.879 126.058L181.891 125.317C181.714 125.29 181.587 125.353 181.503 125.494C181.427 125.645 181.371 125.836 181.337 126.066Z" fill="#C4A56C"/>
<path d="M189.971 116.519C189.971 116.287 189.935 116.09 189.872 115.938C189.81 115.786 189.693 115.706 189.515 115.706L184.499 115.707C184.356 115.707 184.249 115.752 184.186 115.841C184.124 115.939 184.088 116.047 184.07 116.172C184.061 116.297 184.052 116.413 184.052 116.521L183.981 116.521L183.98 114.884L188.62 111.254L184.498 111.255C184.355 111.255 184.248 111.299 184.185 111.389C184.123 111.487 184.087 111.594 184.069 111.72C184.06 111.845 184.051 111.961 184.051 112.068L183.98 112.068L183.98 110.361L184.051 110.361C184.051 110.45 184.06 110.557 184.087 110.683C184.114 110.817 184.15 110.933 184.212 111.031C184.275 111.13 184.373 111.183 184.507 111.183L190.041 111.182L190.041 111.254L184.437 115.635L189.515 115.634C189.693 115.634 189.81 115.554 189.872 115.384C189.935 115.214 189.97 115.026 189.97 114.812L190.042 114.812L190.042 116.519L189.971 116.519Z" fill="#C4A56C"/>
<path d="M191.111 99.4333C191.07 98.8888 190.881 98.4733 190.543 98.1867C190.204 97.9002 189.788 97.6871 189.301 97.5474L189.326 97.4752L191.156 98.0639L191.262 102.255L191.182 102.258L191.18 102.195C191.175 101.989 191.144 101.82 191.087 101.67C191.029 101.519 190.911 101.451 190.732 101.455L185.692 101.583C185.513 101.587 185.399 101.67 185.34 101.824C185.29 101.977 185.269 102.174 185.274 102.407L185.203 102.409L185.104 98.4763L185.174 98.4477L186.805 97.843L186.833 97.9138L186.807 97.9235C185.735 98.3262 185.205 98.9656 185.21 99.8508L185.232 100.727L187.431 100.671L187.42 100.242C187.412 99.9472 187.326 99.7347 187.153 99.596C186.98 99.4573 186.754 99.3914 186.477 99.3895L186.475 99.3091L188.388 99.2607L188.39 99.3501C188.113 99.3571 187.9 99.434 187.734 99.5813C187.568 99.7286 187.493 99.9451 187.5 100.24L187.511 100.669L191.14 100.577L191.111 99.4333Z" fill="#C4A56C"/>
</svg>
