<svg width="32" height="32" viewBox="0 0 32 32" fill="none" xmlns="http://www.w3.org/2000/svg">
<path d="M28.1235 14.4013C28.0914 14.3641 28.0572 14.3273 28.022 14.29C28.0557 14.3273 28.0899 14.3641 28.122 14.4013C28.241 14.5303 28.3575 14.6638 28.4699 14.8011C28.357 14.6638 28.2426 14.5303 28.1235 14.4013ZM27.7109 4.28904C26.5117 3.90849 25.3219 3.67808 24.1699 3.60249C23.8349 3.57971 23.5025 3.57039 23.1738 3.57505C23.006 3.57816 22.8434 3.57816 22.6803 3.58644L22.1921 3.6201C21.868 3.64598 21.5506 3.68637 21.241 3.73607C20.5011 3.85516 19.7985 4.03896 19.1425 4.27765C18.691 3.74229 18.1738 3.23333 17.5934 2.76114C17.3485 2.56128 17.0922 2.36971 16.8261 2.18436C16.694 2.08598 16.5584 2.00366 16.4201 1.91512L15.9992 1.65262L15.5767 1.91512C15.4395 2.00366 15.3044 2.08598 15.1708 2.18436C15.3142 2.25374 15.4545 2.34072 15.5933 2.42149L15.9992 2.66328C16.2684 2.8388 16.5278 3.01794 16.7758 3.2033C17.0642 3.4161 17.3381 3.64029 17.598 3.87846C17.8398 4.08815 18.0656 4.32476 18.2799 4.5474C18.3881 4.65872 18.4896 4.78453 18.5895 4.90051C18.6895 5.01804 18.7894 5.12936 18.8795 5.25517C19.0213 5.20029 19.1632 5.14541 19.3097 5.08897C19.4578 5.03254 19.6012 4.99215 19.7529 4.944C20.0543 4.84407 20.3608 4.77314 20.6797 4.6991C21.0183 4.62972 21.3694 4.56863 21.7292 4.52513C22.0352 4.48786 22.35 4.46249 22.6658 4.45265C22.9848 4.43349 23.2991 4.4397 23.6247 4.44799C23.9457 4.45938 24.2709 4.4832 24.5997 4.52047C25.3861 4.60746 26.1887 4.76693 26.9948 5.00406C27.2335 5.81176 27.393 6.61428 27.4799 7.40075C27.6265 7.46185 27.7714 7.52812 27.9185 7.59595L27.9268 7.59906C28.0769 7.67154 28.2348 7.7492 28.3974 7.83256C28.3218 6.67848 28.093 5.49075 27.7109 4.29007V4.28904ZM16.4056 29.5799L15.9997 29.3381C15.7305 29.1626 15.4711 28.9834 15.2231 28.7981C14.9347 28.5837 14.6608 28.3611 14.4024 28.1229C14.1591 27.9132 13.9349 27.6766 13.719 27.4524C13.6108 27.3427 13.5093 27.2169 13.4094 27.1009C13.3095 26.9818 13.2095 26.872 13.1179 26.7447C12.9791 26.8011 12.8342 26.856 12.6892 26.9109C12.5427 26.9688 12.3977 27.0092 12.246 27.0574C11.9446 27.1573 11.6381 27.2282 11.3192 27.3023C10.9806 27.3717 10.6295 27.4312 10.2718 27.4747C9.96371 27.5135 9.64943 27.5394 9.33205 27.5487C9.01622 27.5679 8.70038 27.5601 8.37472 27.5518C8.05215 27.5405 7.727 27.5182 7.39978 27.4809C6.61331 27.3939 5.81078 27.2329 5.00464 26.9958C4.7675 26.1896 4.60648 25.3871 4.5195 24.6006C4.37297 24.5395 4.22593 24.4733 4.08251 24.4054L4.07267 24.4008C3.9246 24.3298 3.76306 24.2506 3.60203 24.1688C3.67763 25.3213 3.90647 26.5106 4.28858 27.7113C5.48926 28.0919 6.67906 28.3223 7.83107 28.3979C8.16658 28.4206 8.49846 28.4284 8.82724 28.4253C8.99343 28.4222 9.15446 28.4222 9.31859 28.4139L9.80838 28.3803C10.1309 28.3544 10.4483 28.314 10.7595 28.2643C11.4978 28.1436 12.1989 27.9614 12.858 27.7227C13.3095 28.2581 13.8267 28.7686 14.4071 29.2392C14.6504 29.4391 14.9067 29.6306 15.1713 29.816C15.3049 29.9144 15.4405 29.9951 15.5772 30.0852L15.9997 30.3477L16.4207 30.0852C16.5594 29.9951 16.6945 29.9144 16.8266 29.816C16.6847 29.7451 16.5444 29.6581 16.4062 29.5789L16.4056 29.5799ZM4.89901 18.5905C4.78304 18.4906 4.65722 18.3891 4.5459 18.2809C4.32327 18.065 4.08665 17.8408 3.87541 17.5975C3.63828 17.3396 3.41616 17.0657 3.20181 16.7789C3.01645 16.5309 2.83731 16.2694 2.66179 16.0002L2.42 15.5922C2.34078 15.455 2.2538 15.3152 2.18286 15.1733C2.03116 14.8896 1.88774 14.5945 1.75571 14.2916C1.43833 13.5678 1.17375 12.7927 0.977007 11.9757C1.55586 11.3647 2.17147 10.8247 2.80779 10.3577C2.78864 10.1997 2.77259 10.0403 2.75964 9.88081L2.72444 9.36202V9.34907C2.38427 9.57637 2.05083 9.82282 1.71843 10.0858C1.42487 10.3276 1.12043 10.5808 0.839801 10.8563C0.697936 10.9919 0.546233 11.1286 0.412652 11.2736C0.275447 11.4185 0.138759 11.5651 0 11.7152C0.0372785 11.9135 0.0916429 12.1118 0.138759 12.3049C0.190534 12.4986 0.235579 12.6902 0.296675 12.8786C0.417312 13.2592 0.530183 13.6263 0.678779 13.9861C0.825304 14.3775 0.997717 14.7581 1.18152 15.1257C1.33167 15.427 1.48959 15.719 1.64906 16.0007L1.91363 16.4211C2.00372 16.5599 2.08449 16.695 2.18286 16.827C2.36822 17.0947 2.55979 17.3494 2.75964 17.5943C3.23184 18.1732 3.74131 18.692 4.27615 19.1419C4.03747 19.7995 3.85366 20.5041 3.73613 21.2419C3.68436 21.5531 3.64604 21.8705 3.6186 22.1931L3.58495 22.6813C3.57666 22.8439 3.57666 23.0085 3.57356 23.1747C3.85729 23.3409 4.15707 23.4859 4.44701 23.6262C4.43873 23.3005 4.43096 22.9863 4.44857 22.6689C4.45996 22.3515 4.48377 22.0388 4.52416 21.7307C4.56765 21.3714 4.62564 21.0198 4.69657 20.6812C4.77061 20.3623 4.8431 20.0573 4.94147 19.7544C4.98962 19.6027 5.03001 19.4578 5.088 19.3112C5.14288 19.1647 5.19776 19.0213 5.2542 18.881C5.12683 18.7893 5.01706 18.691 4.89798 18.591L4.89901 18.5905ZM13.9851 0.678202C13.6258 0.53323 13.2582 0.417253 12.8792 0.297651C12.6892 0.236556 12.4986 0.193064 12.304 0.139735C12.1103 0.0931372 11.9125 0.0367018 11.7142 0.000976562C11.5641 0.138182 11.4176 0.276423 11.2726 0.413629C11.1292 0.549281 10.992 0.700466 10.8553 0.840778C10.5814 1.1214 10.3282 1.42429 10.0849 1.71941C9.82236 2.05129 9.57539 2.38525 9.3481 2.72541C9.15963 3.00448 8.98567 3.2877 8.82724 3.57505C8.65948 3.85878 8.51451 4.15856 8.3742 4.44695C8.23544 4.74052 8.1117 5.03512 8.00038 5.33025C7.7358 6.02974 7.54268 6.73078 7.41842 7.41939C6.73032 7.54366 6.02928 7.73678 5.33134 8.00135C5.03622 8.11267 4.74006 8.23848 4.44805 8.37517C4.1581 8.51548 3.85832 8.66046 3.57459 8.82666C3.5777 8.99441 3.5777 9.15698 3.58598 9.32008L3.61964 9.80832L4.03074 9.56032C4.1695 9.4811 4.31291 9.40706 4.4496 9.33302C4.73178 9.18494 5.01706 9.04929 5.30235 8.92865C6.24829 8.52429 7.21235 8.268 8.13448 8.13545C8.2665 7.21177 8.52435 6.24978 8.92768 5.30177C9.04832 5.01649 9.18397 4.73275 9.33205 4.45213C9.40609 4.31182 9.48013 4.16995 9.55934 4.03171L9.80942 3.62061C9.97873 3.34672 10.1625 3.07593 10.3572 2.80981C10.8263 2.17141 11.3663 1.55735 11.9752 0.979019C12.7938 1.17577 13.5694 1.43827 14.2911 1.75772C14.4169 1.66401 14.5428 1.57237 14.6717 1.48383C14.7877 1.3984 14.9036 1.32436 15.0051 1.25964C15.0388 1.23686 15.1211 1.1856 15.1211 1.1856L15.1242 1.1825C14.7581 0.998694 14.3781 0.829387 13.9846 0.679756L13.9851 0.678202ZM28.414 22.6808L28.3803 22.1925L27.9692 22.4405C27.832 22.5198 27.687 22.5938 27.5504 22.6678C27.2682 22.8159 26.9844 22.95 26.6992 23.0722C25.7517 23.475 24.7892 23.7329 23.8655 23.8654C23.7335 24.7891 23.4772 25.7511 23.0707 26.6991C22.9501 26.9844 22.8144 27.2681 22.6664 27.5487C22.5939 27.689 22.5198 27.8309 22.4406 27.9697L22.1926 28.3808C22.0217 28.6547 21.8379 28.9255 21.6427 29.1916C21.1752 29.8284 20.6336 30.444 20.0248 31.0224C19.2062 30.8256 18.4321 30.5616 17.7068 30.2437C17.5841 30.3374 17.4567 30.429 17.3298 30.5176C17.2123 30.603 17.101 30.6739 16.9948 30.7417C16.9612 30.7645 16.8789 30.8158 16.8789 30.8158L16.8758 30.8189C17.2434 31.0027 17.6219 31.172 18.0153 31.3216C18.3747 31.4666 18.7423 31.581 19.1213 31.7022C19.3128 31.7633 19.5018 31.8068 19.6965 31.8601C19.8901 31.9067 20.09 31.9631 20.2847 31.9989C20.4364 31.8617 20.5829 31.7234 20.7279 31.5862C20.8728 31.4506 21.0101 31.2994 21.1467 31.1591C21.4206 30.8769 21.6738 30.574 21.9172 30.2804C22.1781 29.9485 22.4266 29.6146 22.6524 29.2744C22.8408 28.9953 23.0148 28.7121 23.1748 28.4248C23.341 28.141 23.486 27.8413 23.6263 27.5513C23.7635 27.2578 23.8872 26.9632 23.9985 26.668C24.2662 25.9701 24.4578 25.2691 24.5821 24.581C25.2717 24.4567 25.9733 24.2636 26.6707 23.999C26.9658 23.8877 27.2604 23.7619 27.554 23.6252C27.8424 23.4849 28.1422 23.3399 28.4259 23.1737C28.4228 23.0075 28.4228 22.8434 28.4145 22.6803L28.414 22.6808Z" fill="#C4A56C"/>
<path d="M21.9185 1.71941C21.6752 1.42429 21.422 1.1214 21.1481 0.840778C21.0109 0.700466 20.8742 0.549281 20.7293 0.413629C20.5843 0.276423 20.4378 0.138182 20.2861 0.000976562C20.0909 0.036184 19.891 0.0926195 19.6979 0.139735C19.5027 0.193064 19.3142 0.236556 19.1227 0.297651C18.7437 0.416735 18.3766 0.533231 18.0167 0.678202C17.6232 0.828352 17.2447 0.997141 16.8771 1.18094C16.5758 1.33109 16.2838 1.49056 16.0021 1.65159L15.5796 1.91409C15.4424 2.00262 15.3073 2.08495 15.1737 2.18332C14.9091 2.36868 14.6529 2.56025 14.4095 2.7601C13.8291 3.23074 13.3119 3.74177 12.8604 4.27661C12.2013 4.03793 11.4982 3.85412 10.7619 3.73504C10.4507 3.68482 10.1334 3.64495 9.8108 3.61906L9.321 3.58541C9.15635 3.57712 8.99533 3.57712 8.82965 3.57402C8.66189 3.85775 8.51692 4.15753 8.37661 4.44592C8.70228 4.43763 9.01811 4.43142 9.33394 4.45058C9.65133 4.46042 9.96561 4.48579 10.2737 4.52306C10.6314 4.56656 10.983 4.62765 11.3211 4.69703C11.64 4.77107 11.9465 4.842 12.2479 4.94193C12.3996 4.99008 12.5446 5.03047 12.6911 5.0869C12.8361 5.14334 12.981 5.19822 13.1198 5.2531C13.2114 5.12729 13.3114 5.01597 13.4113 4.89844C13.5112 4.78246 13.6127 4.65665 13.7209 4.54533C13.9368 4.32269 14.161 4.08608 14.4043 3.87639C14.6606 3.6377 14.9345 3.41558 15.2229 3.20123C15.473 3.01587 15.7324 2.83673 16.0016 2.66121L16.4075 2.41942C16.5463 2.33865 16.6866 2.25167 16.828 2.18229C17.1117 2.03058 17.4068 1.88872 17.7081 1.75514C18.4335 1.4362 19.207 1.17318 20.0261 0.97643C20.6355 1.55528 21.1771 2.16934 21.6441 2.80722C21.802 2.78806 21.9615 2.77201 22.121 2.75907L22.6418 2.72386H22.6532C22.4275 2.38369 22.1795 2.05026 21.918 1.71786L21.9185 1.71941ZM9.56072 27.9692C9.4815 27.8304 9.40746 27.6885 9.33343 27.5482C9.18535 27.2676 9.04969 26.9839 8.93061 26.6986C8.52624 25.7511 8.2684 24.7886 8.13585 23.8649C7.21373 23.7329 6.25018 23.4766 5.30372 23.0738C5.01844 22.9511 4.73316 22.8159 4.45098 22.6679C4.31377 22.5938 4.17035 22.5198 4.03211 22.4406L3.62101 22.1926C3.34867 22.0217 3.07789 21.8394 2.81021 21.6411C2.17337 21.1736 1.55775 20.6336 0.979419 20.0226C1.17617 19.2072 1.44022 18.43 1.75813 17.7083C1.66441 17.5824 1.57277 17.4566 1.48423 17.3293C1.3988 17.2117 1.32787 17.1004 1.26004 16.9938C1.23726 16.9585 1.18445 16.8778 1.18445 16.8778L1.1829 16.8762C0.999094 17.2423 0.828234 17.6223 0.681709 18.0143C0.53363 18.3736 0.420759 18.7412 0.299604 19.1217C0.238509 19.3102 0.193464 19.5007 0.141689 19.6954C0.0950904 19.8891 0.0402082 20.0868 0.00292969 20.2851C0.141689 20.4353 0.278376 20.5818 0.415582 20.7268C0.549163 20.8718 0.700866 21.0074 0.842731 21.1441C1.12336 21.418 1.4278 21.6712 1.72136 21.9145C2.05325 22.177 2.3872 22.424 2.72737 22.6513C3.00644 22.8397 3.2881 23.0137 3.577 23.1737C3.86074 23.3399 4.16052 23.4849 4.45046 23.6252C4.74196 23.7624 5.03863 23.8877 5.33375 23.999C6.03169 24.2636 6.73273 24.4567 7.42083 24.581C7.54509 25.2691 7.73822 25.9701 8.00279 26.668C8.11411 26.9632 8.23837 27.2578 8.37661 27.5513C8.51692 27.8413 8.66189 28.1411 8.82965 28.4248C8.99585 28.4217 9.15687 28.4217 9.321 28.4134L9.8108 28.3797L9.56072 27.9686V27.9692ZM22.6677 27.5482C22.3519 27.5384 22.0376 27.513 21.7311 27.4742C21.3718 27.4307 21.0202 27.3712 20.6816 27.3018C20.3627 27.2277 20.0562 27.1552 19.7548 27.0569C19.6031 27.0087 19.4597 26.9683 19.3116 26.9103C19.1651 26.8555 19.0232 26.8006 18.8814 26.7442C18.7913 26.8715 18.6914 26.9813 18.5914 27.1004C18.4915 27.2163 18.39 27.3422 18.2818 27.4519C18.0675 27.6761 17.8417 27.9127 17.5999 28.1224C17.3405 28.3611 17.0666 28.5832 16.7777 28.7976C16.5297 28.9829 16.2698 29.1621 16.0011 29.3376L15.5952 29.5794C15.4564 29.6586 15.3161 29.7456 15.1727 29.8165C14.889 29.9682 14.5959 30.1101 14.2925 30.2437C13.5702 30.5611 12.7951 30.8256 11.9766 31.0224C11.3672 30.4435 10.8272 29.8279 10.3601 29.1916C10.2022 29.2107 10.0412 29.2268 9.88121 29.2397L9.36242 29.2749H9.34948C9.57677 29.6151 9.82322 29.9485 10.0862 30.2809C10.3296 30.5745 10.5828 30.8774 10.8567 31.1596C10.9939 31.2999 11.1306 31.4511 11.274 31.5867C11.419 31.7239 11.5655 31.8622 11.7156 31.9994C11.9139 31.9642 12.1122 31.9077 12.3053 31.8606C12.5005 31.8073 12.6906 31.7638 12.8806 31.7027C13.2596 31.5821 13.6267 31.4671 13.9865 31.3222C14.38 31.172 14.76 31.0017 15.1276 30.8194C15.4274 30.6677 15.7189 30.5098 16.0011 30.3488L16.422 30.0863C16.5608 29.9962 16.6959 29.9154 16.828 29.817C17.0941 29.6317 17.3504 29.4401 17.5953 29.2403C18.1757 28.7681 18.6929 28.2586 19.1444 27.7237C19.8004 27.9624 20.503 28.1442 21.2413 28.2653C21.5525 28.3155 21.8699 28.3554 22.194 28.3813L22.6822 28.415C22.8448 28.4232 23.0079 28.4232 23.1757 28.4263C23.3419 28.1426 23.4868 27.8428 23.6271 27.5529C23.3015 27.5612 22.9872 27.5689 22.6683 27.5498L22.6677 27.5482ZM31.5877 11.2725C31.4525 11.1276 31.3024 10.9904 31.1605 10.8552C30.8799 10.5798 30.5754 10.3266 30.2819 10.0848C29.95 9.8223 29.616 9.57533 29.2779 9.34959C29.2588 9.33665 29.2407 9.3237 29.2215 9.31231C28.9606 9.1368 28.696 8.9737 28.4267 8.82562C28.143 8.65942 27.8432 8.51445 27.5548 8.37414C27.2856 8.24832 27.0133 8.13235 26.7425 8.02776C26.7181 8.01792 26.6959 8.01016 26.6715 8.00032C25.9736 7.73575 25.2726 7.54262 24.5829 7.41836C24.4587 6.73026 24.2671 6.02922 23.9994 5.32921C23.8881 5.03409 23.7643 4.73949 23.6271 4.44592C23.4868 4.15753 23.3419 3.85775 23.1757 3.57402C23.0079 3.57712 22.8453 3.57712 22.6822 3.58541L22.194 3.61906L22.442 4.03016C22.5212 4.16892 22.5952 4.31078 22.6677 4.45058C22.8158 4.7312 22.9515 5.01493 23.0737 5.30022C23.478 6.24771 23.7343 7.21022 23.8669 8.1339C24.7905 8.26593 25.7525 8.52222 26.7005 8.9271C26.7181 8.93539 26.7378 8.94315 26.7554 8.95144C27.0216 9.06586 27.2872 9.19323 27.5517 9.33199C27.6889 9.40603 27.8339 9.48007 27.9706 9.55929L28.3817 9.80729C28.6364 9.96676 28.8912 10.1361 29.1392 10.3183C29.1568 10.3313 29.1744 10.3442 29.1925 10.3571C29.8309 10.8247 30.445 11.3647 31.0233 11.9751C30.8265 12.7937 30.564 13.5693 30.2446 14.2931C30.2363 14.3123 30.227 14.332 30.2187 14.3511C30.3072 14.4687 30.3942 14.5898 30.4797 14.7136L30.4895 14.7281C30.5138 14.7602 30.5361 14.7928 30.5589 14.8249C30.6039 14.8927 30.6541 14.9698 30.7038 15.0491C30.7214 15.0765 30.739 15.1055 30.7572 15.1329L30.7893 15.1847C30.7991 15.1656 30.81 15.1443 30.8198 15.1236C31.0036 14.7576 31.1729 14.3775 31.321 13.9856C31.4691 13.6263 31.5835 13.2587 31.7047 12.8781C31.7642 12.6896 31.8077 12.4976 31.8595 12.3044C31.9097 12.1108 31.9641 11.913 31.9998 11.7147C31.8626 11.5646 31.7243 11.418 31.5871 11.2731L31.5877 11.2725ZM30.0209 15.4762C29.9774 15.4068 29.9339 15.339 29.8889 15.2732C29.8661 15.2396 29.8423 15.207 29.818 15.1733C29.747 15.3152 29.66 15.4555 29.5808 15.5922L29.339 16.0002C29.1728 16.2518 29.0087 16.4967 28.8347 16.7287C28.8233 16.7463 28.812 16.7623 28.7995 16.7789C28.5867 17.0657 28.3625 17.3396 28.1244 17.5975C27.9147 17.8408 27.6781 18.065 27.4554 18.2809C27.3441 18.3891 27.2183 18.4906 27.1023 18.5905C26.9832 18.6904 26.8735 18.7888 26.7477 18.8805C26.8025 19.0208 26.859 19.1642 26.9123 19.3107C26.9703 19.4572 27.0107 19.6022 27.0588 19.7539C27.1588 20.0568 27.2297 20.3618 27.3037 20.6807C27.3731 21.0193 27.4342 21.3704 27.4777 21.7281C27.515 22.0362 27.5403 22.3505 27.5517 22.6679C27.5693 22.9852 27.5616 23.2995 27.5548 23.6252C27.5435 23.9457 27.5196 24.2729 27.4824 24.6001C27.3954 25.3866 27.2359 26.1891 26.9972 26.9953C26.1911 27.2324 25.3885 27.3934 24.6036 27.4804C24.541 27.6269 24.4747 27.7719 24.4069 27.9189L24.4038 27.9272C24.3313 28.0753 24.2536 28.2353 24.1703 28.3979C25.3228 28.3223 26.5121 28.0919 27.7128 27.7113C28.0949 26.5106 28.3237 25.3208 28.3993 24.1688C28.4221 23.8333 28.4298 23.5014 28.4267 23.1742C28.4236 23.008 28.4236 22.8439 28.4154 22.6808L28.3817 22.1926C28.3543 21.87 28.3154 21.5526 28.2657 21.2414C28.1466 20.5031 27.9628 19.799 27.7241 19.1414C28.2595 18.6899 28.77 18.1727 29.2407 17.5923C29.2536 17.5762 29.2665 17.5602 29.2795 17.5441C29.4664 17.3153 29.6455 17.075 29.818 16.827C29.9163 16.695 29.9987 16.5594 30.0872 16.4211L30.3497 16.0023V16.0007L30.0872 15.5803C30.0644 15.5466 30.0421 15.5109 30.0209 15.4772V15.4762Z" fill="#C4A56C"/>
<path d="M7.83118 3.60596C7.74731 3.76853 7.67016 3.92852 7.59923 4.0766L7.59457 4.08488C7.52674 4.23141 7.46254 4.37638 7.39938 4.52342C6.6129 4.6104 5.81038 4.76987 5.00423 5.00701C4.7671 5.81471 4.60608 6.61723 4.5191 7.4037C4.48182 7.73248 4.45955 8.05815 4.44816 8.37864C4.43988 8.70431 4.43211 9.01859 4.44972 9.33597C4.46111 9.65336 4.48492 9.96608 4.52531 10.2741C4.5688 10.6319 4.62679 10.985 4.69772 11.3236C4.77176 11.6426 4.84425 11.9475 4.94262 12.2504C4.99077 12.4006 5.03116 12.5471 5.08915 12.6936C5.14403 12.8401 5.19891 12.9836 5.25535 13.1223C5.12798 13.216 5.01821 13.3139 4.89913 13.4138C4.78315 13.5138 4.65734 13.6152 4.54602 13.7234C4.35756 13.9041 4.15925 14.0942 3.977 14.294C3.9418 14.3313 3.90762 14.3681 3.87552 14.4053C3.63684 14.6647 3.41627 14.9386 3.20192 15.226C3.01657 15.4761 2.83742 15.7354 2.6619 16.0047L2.42011 16.4106C2.34089 16.5494 2.25391 16.6897 2.18298 16.8315C2.0846 16.6995 2.00383 16.5639 1.91374 16.4256L1.64917 16.0052L1.91374 15.5848C2.00383 15.446 2.0846 15.3109 2.18298 15.1789C2.36833 14.9112 2.5599 14.6549 2.75976 14.4115C2.97411 14.147 3.1983 13.8959 3.42715 13.6587C3.70104 13.3734 3.98477 13.1089 4.27679 12.8624C4.0381 12.2064 3.8543 11.5023 3.73676 10.7639C3.68499 10.4528 3.64512 10.1354 3.61923 9.81283L3.58558 9.32458C3.5773 9.16201 3.5773 8.99891 3.57419 8.83116C3.57108 8.50238 3.57885 8.17205 3.60163 7.83655C3.67722 6.68247 3.90607 5.49473 4.28818 4.29406C5.48885 3.9135 6.67711 3.6831 7.83067 3.60751L7.83118 3.60596Z" fill="#C4A56C"/>
<path d="M32.0007 20.287C31.8635 20.4371 31.7253 20.5836 31.5881 20.7286C31.453 20.8736 31.3028 21.0092 31.1609 21.1459C30.8803 21.4198 30.5759 21.673 30.2823 21.9164C29.9504 22.1789 29.6165 22.4258 29.2784 22.6516V22.6402L29.2411 22.1214C29.2282 21.9619 29.2121 21.8024 29.193 21.6445C29.8313 21.1754 30.4454 20.6354 31.0237 20.0245C30.827 19.2074 30.5645 18.4318 30.245 17.7085C30.1115 17.4057 29.9696 17.1121 29.8179 16.8284C29.747 16.6865 29.66 16.5462 29.5808 16.4074L29.339 16.0015C29.1634 15.7323 28.9843 15.4729 28.7989 15.2228C28.6928 15.0794 28.583 14.9391 28.4717 14.8024C28.3588 14.6652 28.2444 14.5316 28.1253 14.4027C28.0932 14.3654 28.0591 14.3286 28.0239 14.2913C27.8416 14.0915 27.6433 13.9015 27.4548 13.7208C27.3435 13.6126 27.2177 13.5111 27.1017 13.4112C26.9826 13.3112 26.8729 13.2129 26.7471 13.1197C26.802 12.9809 26.8584 12.8375 26.9117 12.691C26.9697 12.5444 27.0101 12.3974 27.0582 12.2478C27.1582 11.9449 27.2291 11.6399 27.3031 11.321C27.3725 10.9824 27.4336 10.6298 27.4771 10.2715C27.5144 9.96342 27.5398 9.65069 27.5511 9.33331C27.5687 9.01592 27.561 8.70165 27.5543 8.37598C27.8426 8.51629 28.1424 8.66126 28.4262 8.82746C28.423 8.99521 28.423 9.15779 28.4148 9.32088L28.3811 9.80913C28.3537 10.1317 28.3148 10.4491 28.2651 10.7602C28.146 11.4986 27.9622 12.2027 27.7236 12.8587C28.0151 13.1036 28.2988 13.3697 28.5732 13.655C28.802 13.8922 29.0262 14.1433 29.2406 14.4078C29.4404 14.6512 29.632 14.9075 29.8174 15.1752C29.8417 15.2088 29.8655 15.2414 29.8883 15.2751C29.9333 15.3414 29.9768 15.4087 30.0203 15.478C30.041 15.5117 30.0638 15.5474 30.0866 15.5811L30.3491 16.0015V16.0031C30.5101 16.2852 30.6696 16.5752 30.8182 16.8765C31.0035 17.2441 31.1729 17.6241 31.3209 18.0161C31.469 18.3754 31.5834 18.743 31.7046 19.1236C31.7641 19.312 31.8076 19.5026 31.8594 19.6972C31.9096 19.8909 31.964 20.0887 31.9997 20.287H32.0007Z" fill="#C4A56C"/>
<path d="M14.9081 21.4486C14.3178 21.6236 13.8669 22.103 13.7074 22.6979L13.1539 24.7622L12.4404 27.424L13.3657 27.672L14.3732 23.9146C14.7393 25.0294 15.4269 25.4938 15.9995 25.7459V21.3114C15.9995 21.3114 15.504 21.272 14.9081 21.4486Z" fill="#C4A56C"/>
<path d="M14.7921 8.80273C14.5219 8.42994 14.3888 8.10738 14.3267 7.91477L14.2759 7.7289V7.72683L13.3642 4.32568L12.4389 4.57369L13.3854 8.10324C13.3978 8.14725 13.4092 8.19022 13.419 8.23423C13.8358 9.91797 13.3761 11.0503 13.3761 11.0503C11.5344 10.7976 10.4922 9.81494 10.4922 9.81494L7.88319 7.20596L7.20596 7.88319L10.8044 11.4826C10.8971 11.6012 11.4909 12.2039 12.178 12.5068C14.4768 13.521 13.8006 15.7184 13.8006 15.7184C13.8006 15.7184 13.7276 15.3114 13.4853 14.9169C13.4449 14.8393 13.3875 14.758 13.3098 14.6746L13.3067 14.6715C13.2156 14.5659 13.1094 14.4696 12.9846 14.3909C12.9826 14.3898 12.9815 14.3878 12.98 14.3872C12.6129 14.1201 12.207 13.9446 11.8057 13.8327H11.8047C11.7855 13.827 11.7664 13.8213 11.7472 13.8167C11.6985 13.8043 11.6504 13.7918 11.6028 13.7815C11.5996 13.7804 11.596 13.7804 11.5929 13.7794C11.3226 13.725 11.027 13.7131 10.7531 13.7219L10.7371 13.723C9.91642 13.7489 9.09526 13.6541 8.30257 13.4413L4.57369 12.4415L4.32568 13.3668L7.89821 14.3246C7.93963 14.336 7.98156 14.3474 8.02557 14.3593C9.34741 14.7129 10.3581 15.2426 10.968 15.9032C11.7343 16.7327 11.7027 17.3737 11.7027 17.3737C10.5113 16.8668 9.49031 17.251 9.49031 17.251L4.32568 18.6349L4.57369 19.5602L8.86952 18.4247C9.12581 18.36 10.1427 18.1358 10.7365 18.4879C11.099 18.6877 11.5096 19.0232 11.8725 19.5881C11.8725 19.5881 11.449 19.8718 11.0125 20.3016C11.0011 20.3119 10.9902 20.3228 10.9789 20.3342C10.9752 20.3378 10.9721 20.3409 10.969 20.3446L7.20596 24.1164L7.88319 24.7936L10.6081 22.0687C11.3765 21.3003 12.3897 20.8214 13.4719 20.7344C13.7918 20.7085 14.1066 20.6474 14.4049 20.5532C14.4049 20.5532 15.2431 20.3052 15.2431 19.5161C15.2431 19.5027 15.2431 19.4882 15.2421 19.4747C15.2239 19.133 14.977 18.8752 14.7093 18.6914C14.4639 18.5246 14.1708 18.4594 13.944 18.2642C13.7478 18.0954 13.6163 17.8609 13.579 17.6093C13.5506 17.4141 13.5702 17.2126 13.6241 17.0231C13.6272 17.0107 13.7038 16.7896 13.7105 16.7896C14.4732 17.1919 15.2353 17.3928 15.9985 17.3928V9.93713C15.4336 9.56072 15.0505 9.15946 14.7927 8.80428L14.7921 8.80273Z" fill="#C4A56C"/>
<path d="M17.0914 21.4486C17.6817 21.6236 18.1326 22.103 18.2921 22.6979L18.8456 24.7622L19.5591 27.424L18.6338 27.672L17.6263 23.9146C17.2602 25.0294 16.5726 25.4938 16 25.7459V21.3114C16 21.3114 16.4955 21.272 17.0914 21.4486Z" fill="#C4A56C"/>
<path d="M17.2064 8.80273C17.4766 8.42994 17.6097 8.10738 17.6718 7.91477L17.7226 7.7289V7.72683L18.6343 4.32568L19.5596 4.57369L18.6131 8.10324C18.6007 8.14725 18.5893 8.19022 18.5795 8.23423C18.1627 9.91797 18.6224 11.0503 18.6224 11.0503C20.4641 10.7976 21.5063 9.81494 21.5063 9.81494L24.1153 7.20596L24.7925 7.88319L21.1941 11.4826C21.1015 11.6012 20.5076 12.2039 19.8205 12.5068C17.5217 13.521 18.1979 15.7184 18.1979 15.7184C18.1979 15.7184 18.2709 15.3114 18.5132 14.9169C18.5536 14.8393 18.611 14.758 18.6887 14.6746L18.6918 14.6715C18.7829 14.5659 18.8891 14.4696 19.0139 14.3909C19.0159 14.3898 19.017 14.3878 19.0185 14.3872C19.3856 14.1201 19.7915 13.9446 20.1928 13.8327H20.1938C20.213 13.827 20.2321 13.8213 20.2513 13.8167C20.3 13.8043 20.3481 13.7918 20.3958 13.7815C20.3989 13.7804 20.4025 13.7804 20.4056 13.7794C20.6759 13.725 20.9715 13.7131 21.2454 13.7219L21.2614 13.723C22.0821 13.7489 22.9033 13.6541 23.6959 13.4413L27.4248 12.4415L27.6728 13.3668L24.1003 14.3246C24.0589 14.336 24.0169 14.3474 23.9729 14.3593C22.6511 14.7129 21.6404 15.2426 21.0305 15.9032C20.2642 16.7327 20.2958 17.3737 20.2958 17.3737C21.4872 16.8668 22.5082 17.251 22.5082 17.251L27.6728 18.6349L27.4248 19.5602L23.129 18.4247C22.8727 18.36 21.8558 18.1358 21.262 18.4879C20.8995 18.6877 20.489 19.0232 20.126 19.5881C20.126 19.5881 20.5495 19.8718 20.986 20.3016C20.9974 20.3119 21.0083 20.3228 21.0197 20.3342C21.0233 20.3378 21.0264 20.3409 21.0295 20.3446L24.7925 24.1164L24.1153 24.7936L21.3904 22.0687C20.622 21.3003 19.6088 20.8214 18.5267 20.7344C18.2067 20.7085 17.8919 20.6474 17.5937 20.5532C17.5937 20.5532 16.7554 20.3052 16.7554 19.5161C16.7554 19.5027 16.7554 19.4882 16.7564 19.4747C16.7746 19.133 17.0215 18.8752 17.2892 18.6914C17.5346 18.5246 17.8277 18.4594 18.0545 18.2642C18.2507 18.0954 18.3822 17.8609 18.4195 17.6093C18.448 17.4141 18.4283 17.2126 18.3744 17.0231C18.3713 17.0107 18.2947 16.7896 18.288 16.7896C17.5253 17.1919 16.7632 17.3928 16 17.3928V9.93713C16.5649 9.56072 16.948 9.15946 17.2059 8.80428L17.2064 8.80273Z" fill="#C4A56C"/>
</svg>
