<svg width="225" height="80" viewBox="0 0 225 80" fill="none" xmlns="http://www.w3.org/2000/svg">
<path d="M35.6556 22.5012C35.6155 22.4546 35.5728 22.4087 35.5287 22.3621C35.5708 22.4087 35.6135 22.4546 35.6537 22.5012C35.8025 22.6624 35.9481 22.8293 36.0886 23.0009C35.9475 22.8293 35.8045 22.6624 35.6556 22.5012ZM35.1398 9.8603C33.6408 9.38459 32.1535 9.09658 30.7134 9.00208C30.2946 8.9736 29.8791 8.96195 29.4681 8.96778C29.2584 8.97166 29.0552 8.97166 28.8513 8.98202L28.241 9.02409C27.8358 9.05645 27.4391 9.10693 27.0521 9.16906C26.1272 9.31792 25.2489 9.54769 24.4289 9.84606C23.8645 9.17683 23.2179 8.54061 22.4924 7.95034C22.1862 7.70052 21.8659 7.46104 21.5332 7.22934C21.3682 7.10637 21.1986 7.00346 21.0258 6.89278L20.4996 6.56464L19.9714 6.89278C19.7999 7.00346 19.631 7.10637 19.464 7.22934C19.6433 7.31607 19.8187 7.4248 19.9922 7.52577L20.4996 7.82802C20.8361 8.04743 21.1604 8.27137 21.4704 8.50307C21.8309 8.76908 22.1733 9.04933 22.4982 9.34705C22.8005 9.60918 23.0826 9.90496 23.3506 10.1833C23.4859 10.3224 23.6127 10.4797 23.7376 10.6247C23.8625 10.7716 23.9875 10.9107 24.1001 11.068C24.2774 10.9994 24.4548 10.9308 24.6379 10.8603C24.823 10.7897 25.0023 10.7392 25.1919 10.679C25.5686 10.5541 25.9518 10.4655 26.3505 10.3729C26.7738 10.2862 27.2126 10.2098 27.6624 10.1554C28.0449 10.1088 28.4384 10.0771 28.8332 10.0648C29.2319 10.0409 29.6248 10.0486 30.0319 10.059C30.4332 10.0732 30.8396 10.103 31.2506 10.1496C32.2337 10.2583 33.2369 10.4577 34.2446 10.7541C34.543 11.7638 34.7424 12.767 34.8511 13.7501C35.0343 13.8265 35.2155 13.9093 35.3993 13.9941L35.4096 13.998C35.5973 14.0886 35.7948 14.1857 35.998 14.2899C35.9035 12.8472 35.6174 11.3625 35.1398 9.86159V9.8603ZM21.0077 41.4752L20.5002 41.1729C20.1637 40.9535 19.8394 40.7296 19.5294 40.4979C19.1689 40.2299 18.8265 39.9516 18.5035 39.6539C18.1994 39.3918 17.9191 39.096 17.6492 38.8157C17.5139 38.6785 17.3871 38.5213 17.2622 38.3763C17.1373 38.2274 17.0123 38.0902 16.8978 37.931C16.7243 38.0015 16.5431 38.0701 16.3619 38.1387C16.1787 38.2112 15.9975 38.2617 15.8079 38.3219C15.4312 38.4468 15.048 38.5355 14.6493 38.628C14.2261 38.7148 13.7872 38.7892 13.34 38.8436C12.9549 38.8921 12.562 38.9245 12.1653 38.9361C11.7705 38.9601 11.3757 38.9504 10.9686 38.94C10.5654 38.9258 10.1589 38.8979 9.74986 38.8513C8.76673 38.7426 7.76354 38.5413 6.75581 38.2449C6.45938 37.2372 6.2581 36.234 6.14936 35.2508C5.9662 35.1745 5.78239 35.0916 5.60311 35.0068L5.59081 35.001C5.4057 34.9123 5.20377 34.8133 5.00248 34.7111C5.09698 36.1518 5.38305 37.6384 5.8607 39.1394C7.36161 39.6151 8.84893 39.9031 10.289 39.9976C10.7084 40.0261 11.1233 40.0358 11.5343 40.0319C11.742 40.028 11.9433 40.028 12.1485 40.0176L12.7607 39.9756C13.164 39.9432 13.5607 39.8927 13.9497 39.8306C14.8726 39.6798 15.749 39.452 16.5729 39.1536C17.1373 39.8228 17.7838 40.461 18.5094 41.0493C18.8136 41.2991 19.1339 41.5386 19.4647 41.7703C19.6317 41.8933 19.8012 41.9943 19.9721 42.1069L20.5002 42.435L21.0264 42.1069C21.1999 41.9943 21.3688 41.8933 21.5338 41.7703C21.3565 41.6816 21.1811 41.5729 21.0083 41.4739L21.0077 41.4752ZM6.62378 27.7379C6.4788 27.613 6.32152 27.4861 6.18237 27.3508C5.90406 27.0809 5.60828 26.8007 5.34422 26.4965C5.04779 26.1742 4.77013 25.8318 4.50218 25.4732C4.27047 25.1632 4.04654 24.8364 3.82713 24.4998L3.52487 23.9898C3.42585 23.8183 3.31712 23.6436 3.22845 23.4662C3.03881 23.1115 2.85953 22.7426 2.69449 22.364C2.29774 21.4592 1.96701 20.4903 1.72107 19.469C2.44466 18.7052 3.21421 18.0302 4.00964 17.4464C3.9857 17.249 3.96563 17.0496 3.94945 16.8503L3.90544 16.2018V16.1856C3.48022 16.4697 3.0634 16.7778 2.64789 17.1066C2.28091 17.4089 1.90035 17.7253 1.54955 18.0697C1.37221 18.2392 1.18258 18.4101 1.01559 18.5913C0.844078 18.7726 0.673212 18.9557 0.499756 19.1434C0.546356 19.3913 0.614314 19.6392 0.673212 19.8806C0.737934 20.1227 0.794242 20.3621 0.870614 20.5977C1.02142 21.0734 1.16251 21.5323 1.34826 21.9821C1.53143 22.4714 1.74695 22.9471 1.97672 23.4067C2.16441 23.7833 2.36182 24.1484 2.56116 24.5005L2.89189 25.026C3.00451 25.1995 3.10547 25.3684 3.22845 25.5334C3.46015 25.8681 3.69962 26.1865 3.94945 26.4926C4.53972 27.2162 5.17659 27.8647 5.84517 28.4272C5.5468 29.2491 5.31703 30.13 5.17011 31.0523C5.10539 31.4413 5.0575 31.838 5.02319 32.2413L4.98113 32.8516C4.97077 33.0548 4.97077 33.2606 4.96689 33.4684C5.32156 33.6761 5.69631 33.8574 6.05875 34.0328C6.0484 33.6257 6.03869 33.2328 6.06069 32.8361C6.07493 32.4393 6.1047 32.0484 6.15519 31.6633C6.20955 31.2141 6.28204 30.7747 6.37071 30.3514C6.46326 29.9527 6.55388 29.5715 6.67685 29.1928C6.73704 29.0032 6.78752 28.822 6.86001 28.6388C6.92862 28.4557 6.99722 28.2764 7.06777 28.101C6.90855 27.9864 6.77134 27.8634 6.62248 27.7385L6.62378 27.7379ZM17.9819 5.34657C17.5327 5.16534 17.0732 5.02037 16.5994 4.87086C16.3619 4.79449 16.1237 4.74012 15.8804 4.67346C15.6383 4.61521 15.3911 4.54466 15.1432 4.5C14.9555 4.67151 14.7723 4.84432 14.5911 5.01584C14.4118 5.18541 14.2403 5.3744 14.0694 5.5498C13.727 5.90059 13.4106 6.27921 13.1064 6.64813C12.7782 7.063 12.4695 7.48046 12.1854 7.90569C11.9498 8.25454 11.7323 8.60857 11.5343 8.96778C11.3246 9.32246 11.1433 9.6972 10.9679 10.0577C10.7945 10.4247 10.6398 10.7929 10.5006 11.1619C10.1699 12.0363 9.9285 12.9126 9.77316 13.7734C8.913 13.9287 8.03666 14.1702 7.16421 14.5009C6.79529 14.64 6.42508 14.7973 6.06005 14.9682C5.6976 15.1436 5.32286 15.3248 4.96818 15.5326C4.97206 15.7423 4.97206 15.9455 4.98242 16.1494L5.02449 16.7597L5.53838 16.4497C5.71184 16.3506 5.89112 16.2581 6.06199 16.1655C6.41472 15.9804 6.77134 15.8109 7.12796 15.6601C8.31044 15.1546 9.51557 14.8342 10.6683 14.6685C10.8333 13.5139 11.1556 12.3113 11.6598 11.1263C11.8106 10.7696 11.9802 10.415 12.1653 10.0642C12.2578 9.88878 12.3504 9.71144 12.4494 9.53863L12.762 9.02473C12.9737 8.68235 13.2034 8.34386 13.4468 8.01118C14.0332 7.21316 14.7082 6.44555 15.4694 5.7226C16.4926 5.96855 17.4622 6.29669 18.3644 6.69603C18.5217 6.57888 18.6789 6.46432 18.8401 6.35365C18.9851 6.24685 19.1301 6.1543 19.2569 6.0734C19.299 6.04492 19.4019 5.98085 19.4019 5.98085L19.4058 5.97696C18.9482 5.7472 18.4731 5.53556 17.9812 5.34851L17.9819 5.34657ZM36.0187 32.8509L35.9766 32.2406L35.4627 32.5506C35.2912 32.6497 35.11 32.7422 34.9391 32.8348C34.5864 33.0199 34.2317 33.1875 33.8751 33.3402C32.6907 33.8438 31.4875 34.1661 30.3328 34.3318C30.1678 35.4864 29.8474 36.689 29.3393 37.874C29.1885 38.2307 29.019 38.5853 28.8339 38.9361C28.7433 39.1115 28.6507 39.2889 28.5517 39.4623L28.2417 39.9762C28.0281 40.3186 27.7983 40.6571 27.5543 40.9898C26.9699 41.7859 26.2929 42.5554 25.5317 43.2783C24.5085 43.0324 23.5409 42.7023 22.6341 42.3049C22.4807 42.4221 22.3215 42.5366 22.1629 42.6473C22.016 42.7541 21.8769 42.8428 21.7442 42.9275C21.7021 42.956 21.5992 43.0201 21.5992 43.0201L21.5953 43.024C22.0549 43.2537 22.528 43.4654 23.0199 43.6524C23.469 43.8337 23.9286 43.9767 24.4023 44.1281C24.6418 44.2045 24.878 44.2589 25.1214 44.3256C25.3635 44.3838 25.6133 44.4543 25.8566 44.499C26.0463 44.3275 26.2294 44.1547 26.4107 43.9832C26.5919 43.8136 26.7634 43.6246 26.9343 43.4492C27.2766 43.0965 27.5931 42.7178 27.8973 42.3509C28.2235 41.936 28.5342 41.5185 28.8164 41.0933C29.052 40.7445 29.2694 40.3904 29.4694 40.0312C29.6772 39.6765 29.8584 39.3018 30.0338 38.9394C30.2053 38.5724 30.36 38.2041 30.4992 37.8352C30.8338 36.9627 31.0733 36.0864 31.2286 35.2262C32.0907 35.0709 32.9677 34.8295 33.8395 34.4988C34.2084 34.3596 34.5767 34.2023 34.9436 34.0315C35.3042 33.8561 35.6789 33.6749 36.0336 33.4671C36.0297 33.2593 36.0297 33.0542 36.0193 32.8503L36.0187 32.8509Z" fill="#6E5E41"/>
<path d="M27.8973 6.64813C27.5932 6.27922 27.2767 5.90059 26.9343 5.5498C26.7628 5.3744 26.5919 5.18541 26.4107 5.01584C26.2295 4.84432 26.0463 4.67151 25.8567 4.5C25.6127 4.54401 25.3628 4.61456 25.1214 4.67346C24.8774 4.74012 24.6418 4.79449 24.4023 4.87086C23.9286 5.01972 23.4697 5.16534 23.0199 5.34657C22.528 5.53426 22.0549 5.74526 21.5953 5.97502C21.2187 6.16272 20.8536 6.36206 20.5015 6.56335L19.9734 6.89149C19.8019 7.00216 19.633 7.10507 19.466 7.22804C19.1352 7.45975 18.8149 7.69922 18.5107 7.94905C17.7851 8.53737 17.1386 9.17618 16.5742 9.84477C15.7503 9.5464 14.8713 9.31663 13.951 9.16777C13.562 9.10499 13.1653 9.05515 12.762 9.02279L12.1498 8.98072C11.944 8.97037 11.7427 8.97037 11.5356 8.96648C11.3259 9.32116 11.1446 9.6959 10.9692 10.0564C11.3763 10.0461 11.7711 10.0383 12.166 10.0622C12.5627 10.0745 12.9556 10.1062 13.3407 10.1528C13.7879 10.2072 14.2274 10.2836 14.65 10.3703C15.0487 10.4629 15.4318 10.5515 15.8085 10.6764C15.9982 10.7366 16.1794 10.7871 16.3625 10.8577C16.5438 10.9282 16.725 10.9968 16.8984 11.0654C17.013 10.9082 17.1379 10.769 17.2628 10.6221C17.3877 10.4771 17.5146 10.3198 17.6499 10.1807C17.9198 9.90237 18.2 9.60659 18.5042 9.34446C18.8246 9.04609 19.167 8.76843 19.5275 8.50048C19.8401 8.26878 20.1643 8.04484 20.5009 7.82543L21.0083 7.52318C21.1818 7.42221 21.3572 7.31348 21.5339 7.22675C21.8885 7.03711 22.2575 6.85977 22.6341 6.69279C23.5409 6.2941 24.5078 5.96531 25.5317 5.71937C26.2935 6.44296 26.9705 7.21057 27.5543 8.00795C27.7517 7.984 27.9511 7.96394 28.1504 7.94776L28.8015 7.90374H28.8158C28.5336 7.47852 28.2235 7.06171 27.8967 6.64619L27.8973 6.64813ZM12.4494 39.4617C12.3504 39.2882 12.2579 39.1109 12.1653 38.9355C11.9802 38.5847 11.8106 38.23 11.6618 37.8734C11.1563 36.689 10.834 35.4858 10.6683 34.3311C9.51558 34.1661 8.3111 33.8457 7.12797 33.3422C6.77135 33.1888 6.41474 33.0199 6.062 32.8348C5.89048 32.7422 5.7112 32.6497 5.5384 32.5506L5.0245 32.2406C4.68406 32.027 4.34556 31.7992 4.01095 31.5513C3.21487 30.9669 2.44532 30.2918 1.72237 29.5281C1.96832 28.5087 2.2984 27.5372 2.69579 26.635C2.57865 26.4777 2.46409 26.3205 2.35341 26.1613C2.24662 26.0143 2.15795 25.8752 2.07317 25.7418C2.04469 25.6978 1.97867 25.5969 1.97867 25.5969L1.97673 25.5949C1.74697 26.0525 1.53338 26.5276 1.35022 27.0175C1.16511 27.4667 1.02402 27.9262 0.872568 28.4019C0.796195 28.6375 0.739887 28.8757 0.675165 29.1191C0.616915 29.3611 0.548309 29.6084 0.501709 29.8562C0.675165 30.0439 0.846031 30.2271 1.01755 30.4083C1.18453 30.5895 1.37417 30.7591 1.5515 30.93C1.9023 31.2724 2.28287 31.5889 2.64984 31.8931C3.06471 32.2212 3.48217 32.5299 3.90739 32.8141C4.25625 33.0496 4.60834 33.2671 4.96949 33.4671C5.32416 33.6749 5.69891 33.8561 6.06135 34.0315C6.42574 34.203 6.7966 34.3596 7.16551 34.4988C8.03797 34.8295 8.91431 35.0709 9.77447 35.2263C9.9298 36.0864 10.1712 36.9627 10.5019 37.8352C10.6411 38.2041 10.7964 38.5724 10.9692 38.9394C11.1446 39.3018 11.3259 39.6766 11.5356 40.0312C11.7433 40.0273 11.9446 40.0273 12.1498 40.017L12.762 39.9749L12.4494 39.461V39.4617ZM28.8339 38.9355C28.4391 38.9232 28.0462 38.8915 27.6631 38.8429C27.2139 38.7886 26.7744 38.7141 26.3511 38.6274C25.9524 38.5349 25.5693 38.4442 25.1926 38.3213C25.003 38.2611 24.8237 38.2106 24.6386 38.1381C24.4554 38.0695 24.2781 38.0009 24.1007 37.9303C23.9881 38.0896 23.8632 38.2268 23.7383 38.3756C23.6134 38.5206 23.4865 38.6779 23.3513 38.8151C23.0833 39.0953 22.8011 39.3911 22.4989 39.6533C22.1746 39.9516 21.8322 40.2293 21.4711 40.4972C21.1611 40.7289 20.8361 40.9529 20.5002 41.1723L19.9928 41.4745C19.8194 41.5736 19.644 41.6823 19.4647 41.771C19.11 41.9606 18.7437 42.1379 18.3644 42.3049C17.4615 42.7017 16.4926 43.0324 15.4694 43.2784C14.7076 42.5548 14.0325 41.7852 13.4487 40.9898C13.2513 41.0137 13.0501 41.0338 12.8501 41.05L12.2016 41.094H12.1854C12.4695 41.5192 12.7776 41.936 13.1064 42.3515C13.4106 42.7185 13.7271 43.0971 14.0694 43.4499C14.241 43.6253 14.4118 43.8142 14.5911 43.9838C14.7723 44.1553 14.9555 44.3281 15.1432 44.4997C15.3911 44.4556 15.639 44.3851 15.8804 44.3262C16.1244 44.2595 16.3619 44.2052 16.5994 44.1288C17.0732 43.978 17.5321 43.8343 17.9819 43.6531C18.4738 43.4654 18.9488 43.2525 19.4084 43.0246C19.7831 42.835 20.1475 42.6376 20.5002 42.4363L21.0264 42.1082C21.1999 41.9956 21.3688 41.8946 21.5339 41.7716C21.8665 41.5399 22.1869 41.3004 22.493 41.0506C23.2186 40.4603 23.8652 39.8235 24.4295 39.1549C25.2496 39.4533 26.1278 39.6804 27.0508 39.8319C27.4398 39.8947 27.8365 39.9445 28.2417 39.9769L28.852 40.0189C29.0552 40.0293 29.2591 40.0293 29.4688 40.0332C29.6766 39.6785 29.8578 39.3038 30.0332 38.9413C29.6261 38.9517 29.2332 38.9614 28.8345 38.9374L28.8339 38.9355ZM39.9842 18.59C39.8153 18.4088 39.6276 18.2373 39.4503 18.0684C39.0995 17.7241 38.7189 17.4076 38.3519 17.1053C37.9371 16.7772 37.5196 16.4684 37.097 16.1863C37.073 16.1701 37.0504 16.1539 37.0264 16.1397C36.7002 15.9202 36.3695 15.7164 36.0329 15.5313C35.6783 15.3235 35.3035 15.1423 34.943 14.9669C34.6065 14.8096 34.266 14.6646 33.9275 14.5339C33.8971 14.5216 33.8693 14.5119 33.8389 14.4996C32.9664 14.1689 32.0901 13.9274 31.228 13.7721C31.0726 12.912 30.8332 12.0356 30.4985 11.1606C30.3594 10.7917 30.2047 10.4234 30.0332 10.0564C29.8578 9.6959 29.6766 9.32116 29.4688 8.96648C29.2591 8.97037 29.0559 8.97037 28.852 8.98072L28.2417 9.02279L28.5517 9.53669C28.6507 9.71014 28.7433 9.88748 28.8339 10.0622C29.019 10.413 29.1886 10.7677 29.3413 11.1243C29.8468 12.3087 30.1672 13.5119 30.3328 14.6666C31.4875 14.8316 32.69 15.152 33.8751 15.6581C33.8971 15.6685 33.9217 15.6782 33.9437 15.6885C34.2764 15.8316 34.6084 15.9908 34.9391 16.1642C35.1106 16.2568 35.2919 16.3494 35.4627 16.4484L35.9766 16.7584C36.2951 16.9577 36.6135 17.1694 36.9235 17.3972C36.9455 17.4134 36.9675 17.4296 36.9902 17.4457C37.7882 18.0302 38.5558 18.7052 39.2788 19.4683C39.0328 20.4916 38.7047 21.4611 38.3053 22.3659C38.295 22.3899 38.2833 22.4145 38.273 22.4384C38.3837 22.5853 38.4924 22.7368 38.5992 22.8915L38.6115 22.9096C38.6419 22.9497 38.6697 22.9905 38.6982 23.0306C38.7545 23.1154 38.8173 23.2119 38.8794 23.3109C38.9014 23.3452 38.9234 23.3814 38.9461 23.4157L38.9862 23.4805C38.9985 23.4565 39.0121 23.43 39.0244 23.4041C39.2542 22.9465 39.4658 22.4714 39.6509 21.9815C39.836 21.5323 39.979 21.0728 40.1305 20.5971C40.2049 20.3615 40.2593 20.1214 40.324 19.88C40.3868 19.6379 40.4548 19.3907 40.4994 19.1428C40.3279 18.9551 40.1551 18.7719 39.9836 18.5907L39.9842 18.59ZM38.0257 23.8448C37.9714 23.7581 37.917 23.6733 37.8607 23.5911C37.8322 23.5491 37.8024 23.5083 37.772 23.4662C37.6834 23.6436 37.5746 23.819 37.4756 23.9898L37.1733 24.4998C36.9656 24.8144 36.7604 25.1205 36.5429 25.4105C36.5287 25.4325 36.5145 25.4525 36.4989 25.4733C36.2329 25.8318 35.9527 26.1742 35.655 26.4965C35.3928 26.8007 35.097 27.081 34.8187 27.3508C34.6796 27.4861 34.5223 27.613 34.3773 27.7379C34.2285 27.8628 34.0913 27.9858 33.934 28.1003C34.0026 28.2757 34.0731 28.455 34.1398 28.6382C34.2123 28.8213 34.2628 29.0026 34.323 29.1922C34.4479 29.5708 34.5366 29.952 34.6291 30.3507C34.7158 30.774 34.7922 31.2128 34.8466 31.6601C34.8932 32.0452 34.9249 32.438 34.9391 32.8348C34.9611 33.2315 34.9514 33.6244 34.943 34.0315C34.9288 34.4321 34.899 34.8412 34.8524 35.2502C34.7437 36.2333 34.5443 37.2365 34.246 38.2443C33.2382 38.5407 32.235 38.742 31.2538 38.8507C31.1755 39.0339 31.0927 39.2151 31.0079 39.3989L31.004 39.4093C30.9134 39.5944 30.8163 39.7943 30.7121 39.9976C32.1528 39.9031 33.6395 39.6151 35.1404 39.1394C35.6181 37.6385 35.9041 36.1511 35.9986 34.7111C36.0271 34.2917 36.0368 33.8768 36.0329 33.4677C36.0291 33.26 36.0291 33.0548 36.0187 32.8509L35.9766 32.2406C35.9423 31.8374 35.8938 31.4406 35.8316 31.0517C35.6828 30.1287 35.453 29.2485 35.1547 28.4265C35.8239 27.8622 36.462 27.2156 37.0504 26.49C37.0666 26.47 37.0827 26.4499 37.0989 26.4298C37.3326 26.1438 37.5565 25.8435 37.772 25.5334C37.895 25.3684 37.9979 25.1988 38.1086 25.026L38.4367 24.5024V24.5005L38.1086 23.9749C38.0801 23.9329 38.0523 23.8882 38.0257 23.8461V23.8448Z" fill="#6E5E41"/>
<path d="M10.2891 9.00098C10.1843 9.2042 10.0878 9.4042 9.99916 9.5893L9.99334 9.59966C9.90855 9.78282 9.8283 9.96404 9.74933 10.1479C8.7662 10.2566 7.76301 10.4559 6.75528 10.7524C6.45885 11.762 6.25757 12.7652 6.14883 13.7484C6.10223 14.1593 6.0744 14.5664 6.06016 14.9671C6.04981 15.3742 6.0401 15.767 6.06211 16.1638C6.07635 16.5605 6.10612 16.9515 6.1566 17.3366C6.21097 17.7838 6.28346 18.2252 6.37213 18.6485C6.46468 19.0472 6.55529 19.4284 6.67826 19.807C6.73845 19.9947 6.78894 20.1779 6.86143 20.361C6.93003 20.5442 6.99864 20.7235 7.06919 20.8969C6.90997 21.0141 6.77276 21.1364 6.6239 21.2613C6.47892 21.3862 6.32164 21.5131 6.18249 21.6484C5.9469 21.8742 5.69901 22.1118 5.47119 22.3616C5.42718 22.4082 5.38446 22.4541 5.34434 22.5007C5.04597 22.825 4.77025 23.1674 4.5023 23.5266C4.27059 23.8392 4.04666 24.1635 3.82725 24.5L3.52499 25.0074C3.42597 25.1809 3.31724 25.3563 3.22857 25.5336C3.10559 25.3686 3.00463 25.199 2.89201 25.0262L2.56128 24.5007L2.89201 23.9751C3.00463 23.8017 3.10559 23.6327 3.22857 23.4677C3.46027 23.1331 3.69974 22.8127 3.94957 22.5085C4.21752 22.1778 4.49777 21.8639 4.78384 21.5675C5.12622 21.2108 5.4809 20.8801 5.84593 20.572C5.54756 19.752 5.3178 18.8718 5.17088 17.9488C5.10616 17.5599 5.05632 17.1631 5.02396 16.7599L4.98189 16.1496C4.97154 15.9463 4.97154 15.7424 4.96765 15.5327C4.96377 15.1218 4.97348 14.7088 5.00196 14.2894C5.09645 12.8468 5.38252 11.362 5.86017 9.86114C7.36108 9.38543 8.84646 9.09741 10.2885 9.00292L10.2891 9.00098Z" fill="#6E5E41"/>
<path d="M40.5 29.8581C40.3285 30.0458 40.1557 30.229 39.9841 30.4102C39.8152 30.5914 39.6275 30.761 39.4502 30.9319C39.0994 31.2742 38.7188 31.5907 38.3519 31.8949C37.937 32.2231 37.5195 32.5318 37.0969 32.814V32.7997L37.0503 32.1512C37.0341 31.9519 37.014 31.7525 36.9901 31.5551C37.7881 30.9687 38.5557 30.2937 39.2787 29.53C39.0327 28.5086 38.7046 27.5391 38.3053 26.6349C38.1383 26.2563 37.9609 25.8893 37.7713 25.5347C37.6826 25.3573 37.5739 25.1819 37.4749 25.0085L37.1726 24.501C36.9532 24.1645 36.7293 23.8402 36.4976 23.5276C36.3649 23.3483 36.2277 23.1729 36.0885 23.0021C35.9474 22.8306 35.8044 22.6636 35.6555 22.5024C35.6154 22.4558 35.5727 22.4099 35.5287 22.3633C35.3008 22.1134 35.053 21.8759 34.8174 21.65C34.6782 21.5148 34.5209 21.3879 34.376 21.263C34.2271 21.1381 34.0899 21.0151 33.9326 20.8986C34.0012 20.7252 34.0718 20.5459 34.1384 20.3627C34.2109 20.1795 34.2614 19.9957 34.3216 19.8087C34.4465 19.4301 34.5352 19.0488 34.6277 18.6502C34.7145 18.2269 34.7908 17.7861 34.8452 17.3382C34.8918 16.9531 34.9235 16.5622 34.9378 16.1655C34.9598 15.7687 34.95 15.3759 34.9416 14.9688C35.3021 15.1441 35.6769 15.3254 36.0316 15.5331C36.0277 15.7428 36.0277 15.9461 36.0173 16.1499L35.9753 16.7603C35.9409 17.1635 35.8924 17.5602 35.8303 17.9492C35.6814 18.8722 35.4516 19.7524 35.1533 20.5724C35.5177 20.8785 35.8723 21.2112 36.2154 21.5678C36.5014 21.8643 36.7817 22.1782 37.0496 22.5089C37.2995 22.8131 37.5389 23.1335 37.7706 23.4681C37.8011 23.5101 37.8308 23.5509 37.8593 23.593C37.9156 23.6758 37.97 23.76 38.0244 23.8467C38.0502 23.8888 38.0787 23.9334 38.1072 23.9755L38.4353 24.501V24.503C38.6366 24.8557 38.836 25.2182 39.0217 25.5949C39.2534 26.0544 39.4651 26.5294 39.6502 27.0194C39.8353 27.4686 39.9783 27.9281 40.1298 28.4038C40.2042 28.6394 40.2586 28.8776 40.3233 29.1209C40.3861 29.363 40.454 29.6102 40.4987 29.8581H40.5Z" fill="#6E5E41"/>
<path d="M19.1345 31.3119C18.3966 31.5307 17.8329 32.13 17.6336 32.8737L16.9417 35.4542L16.0498 38.7815L17.2064 39.0916L18.4659 34.3947C18.9235 35.7881 19.783 36.3687 20.4988 36.6839V31.1404C20.4988 31.1404 19.8794 31.0912 19.1345 31.3119Z" fill="#6E5E41"/>
<path d="M18.9935 15.5038C18.6557 15.0378 18.4893 14.6345 18.4117 14.3938L18.3482 14.1614V14.1588L17.2085 9.90723L16.0519 10.2172L17.235 14.6294C17.2505 14.6844 17.2648 14.7381 17.2771 14.7931C17.7981 16.8979 17.2234 18.3134 17.2234 18.3134C14.9212 17.9975 13.6183 16.7691 13.6183 16.7691L10.357 13.5077L9.51041 14.3543L14.0086 18.8538C14.1245 19.002 14.8668 19.7554 15.7257 20.134C18.5994 21.4019 17.7541 24.1487 17.7541 24.1487C17.7541 24.1487 17.6628 23.64 17.3599 23.1468C17.3094 23.0497 17.2376 22.9481 17.1405 22.8439L17.1366 22.84C17.0227 22.708 16.89 22.5876 16.7341 22.4892C16.7315 22.4879 16.7302 22.4854 16.7282 22.4847C16.2694 22.1507 15.7619 21.9313 15.2603 21.7915H15.259C15.2351 21.7844 15.2111 21.7773 15.1872 21.7715C15.1264 21.7559 15.0662 21.7404 15.0066 21.7275C15.0027 21.7262 14.9982 21.7262 14.9943 21.7249C14.6565 21.6569 14.2869 21.642 13.9445 21.653L13.9245 21.6543C12.8986 21.6867 11.8721 21.5682 10.8812 21.3022L6.21993 20.0524L5.90991 21.209L10.3757 22.4064C10.4275 22.4206 10.48 22.4349 10.535 22.4498C12.1873 22.8918 13.4507 23.5539 14.2131 24.3798C15.171 25.4166 15.1315 26.2179 15.1315 26.2179C13.6423 25.5843 12.366 26.0645 12.366 26.0645L5.90991 27.7945L6.21993 28.9511L11.5899 27.5317C11.9103 27.4508 13.1815 27.1706 13.9238 27.6107C14.3769 27.8605 14.8901 28.2799 15.3438 28.9861C15.3438 28.9861 14.8144 29.3407 14.2688 29.8779C14.2546 29.8909 14.241 29.9045 14.2267 29.9187C14.2222 29.9232 14.2183 29.9271 14.2144 29.9317L9.51041 34.6467L10.357 35.4932L13.7633 32.0869C14.7238 31.1264 15.9904 30.5277 17.3431 30.419C17.7431 30.3867 18.1366 30.3103 18.5094 30.1925C18.5094 30.1925 19.5573 29.8825 19.5573 28.8961C19.5573 28.8793 19.5573 28.8611 19.556 28.8443C19.5333 28.4172 19.2246 28.0948 18.89 27.8651C18.5832 27.6567 18.2169 27.5751 17.9334 27.3311C17.6881 27.1201 17.5237 26.8269 17.4771 26.5124C17.4415 26.2684 17.4661 26.0166 17.5334 25.7797C17.5373 25.7642 17.6331 25.4878 17.6415 25.4878C18.5948 25.9907 19.5475 26.2418 20.5015 26.2418V16.9218C19.7954 16.4513 19.3165 15.9497 18.9942 15.5057L18.9935 15.5038Z" fill="#6E5E41"/>
<path d="M21.8643 31.3119C22.6022 31.5307 23.1659 32.13 23.3653 32.8737L24.0571 35.4542L24.949 38.7815L23.7924 39.0916L22.5329 34.3947C22.0753 35.7881 21.2158 36.3687 20.5 36.6839V31.1404C20.5 31.1404 21.1194 31.0912 21.8643 31.3119Z" fill="#6E5E41"/>
<path d="M22.008 15.5038C22.3459 15.0378 22.5122 14.6345 22.5899 14.3938L22.6533 14.1614V14.1588L23.7931 9.90723L24.9497 10.2172L23.7665 14.6294C23.751 14.6844 23.7368 14.7381 23.7245 14.7931C23.2034 16.8979 23.7782 18.3134 23.7782 18.3134C26.0804 17.9975 27.3832 16.7691 27.3832 16.7691L30.6446 13.5077L31.4911 14.3543L26.9929 18.8538C26.8771 19.002 26.1347 19.7554 25.2759 20.134C22.4022 21.4019 23.2475 24.1487 23.2475 24.1487C23.2475 24.1487 23.3387 23.64 23.6416 23.1468C23.6921 23.0497 23.7639 22.9481 23.861 22.8439L23.8649 22.84C23.9788 22.708 24.1115 22.5876 24.2675 22.4892C24.2701 22.4879 24.2714 22.4854 24.2733 22.4847C24.7322 22.1507 25.2396 21.9313 25.7412 21.7915H25.7425C25.7665 21.7844 25.7904 21.7773 25.8143 21.7715C25.8752 21.7559 25.9354 21.7404 25.9949 21.7275C25.9988 21.7262 26.0033 21.7262 26.0072 21.7249C26.3451 21.6569 26.7146 21.642 27.057 21.653L27.0771 21.6543C28.1029 21.6867 29.1294 21.5682 30.1203 21.3022L34.7816 20.0524L35.0916 21.209L30.6258 22.4064C30.574 22.4206 30.5216 22.4349 30.4666 22.4498C28.8142 22.8918 27.5508 23.5539 26.7884 24.3798C25.8305 25.4166 25.87 26.2179 25.87 26.2179C27.3593 25.5843 28.6356 26.0645 28.6356 26.0645L35.0916 27.7945L34.7816 28.9511L29.4116 27.5317C29.0912 27.4508 27.8201 27.1706 27.0777 27.6107C26.6247 27.8605 26.1114 28.2799 25.6577 28.9861C25.6577 28.9861 26.1871 29.3407 26.7328 29.8779C26.747 29.8909 26.7606 29.9045 26.7748 29.9187C26.7794 29.9232 26.7832 29.9271 26.7871 29.9317L31.4911 34.6467L30.6446 35.4932L27.2382 32.0869C26.2778 31.1264 25.0111 30.5277 23.6584 30.419C23.2585 30.3867 22.865 30.3103 22.4922 30.1925C22.4922 30.1925 21.4443 29.8825 21.4443 28.8961C21.4443 28.8793 21.4443 28.8611 21.4456 28.8443C21.4682 28.4172 21.777 28.0948 22.1116 27.8651C22.4184 27.6567 22.7847 27.5751 23.0682 27.3311C23.3135 27.1201 23.4779 26.8269 23.5245 26.5124C23.5601 26.2684 23.5355 26.0166 23.4682 25.7797C23.4643 25.7642 23.3685 25.4878 23.3601 25.4878C22.4067 25.9907 21.454 26.2418 20.5 26.2418V16.9218C21.2061 16.4513 21.6851 15.9497 22.0074 15.5057L22.008 15.5038Z" fill="#6E5E41"/>
<path d="M59.764 11.72H55.804C52.1373 11.72 50.304 13.4067 50.304 16.78H49.424V13.48C49.424 11.1333 50.6707 9.96 53.164 9.96H73.624V11.72H63.724V39H59.764V11.72ZM100.938 39.22C99.5297 39.22 98.1364 38.8387 96.7577 38.076C95.379 37.284 94.279 35.7587 93.4577 33.5L92.3577 30.64H80.0377L76.5177 39H74.5377L86.8577 9.96H88.1777L97.8577 33.5C98.591 35.2013 99.2804 36.3747 99.9257 37.02C100.571 37.636 101.495 38.0027 102.698 38.12V39C102.17 39.1467 101.583 39.22 100.938 39.22ZM80.6977 28.88H91.4777L86.1977 16.12L80.6977 28.88ZM116.547 39.748C114.934 39.748 113.35 39.528 111.795 39.088C110.241 38.648 108.965 38.0173 107.967 37.196C106.999 36.3747 106.515 35.436 106.515 34.38V29.672H107.307C107.806 32.6053 108.774 34.732 110.211 36.052C111.649 37.3427 113.629 37.988 116.151 37.988C117.735 37.988 119.085 37.592 120.199 36.8C121.343 36.008 121.915 34.908 121.915 33.5C121.915 32.268 121.534 31.1973 120.771 30.288C120.009 29.3787 118.777 28.4253 117.075 27.428L111.663 24.216C109.786 23.1013 108.451 21.972 107.659 20.828C106.897 19.684 106.515 18.2907 106.515 16.648C106.515 14.3893 107.293 12.5853 108.847 11.236C110.431 9.85733 112.499 9.168 115.051 9.168C116.547 9.168 118.029 9.388 119.495 9.828C120.962 10.2387 122.165 10.8547 123.103 11.676C124.071 12.468 124.555 13.392 124.555 14.448V19.156H123.763C123.265 16.2227 122.311 14.1253 120.903 12.864C119.525 11.5733 117.574 10.928 115.051 10.928C113.702 10.928 112.514 11.3387 111.487 12.16C110.461 12.9813 109.947 14.052 109.947 15.372C109.947 16.5747 110.314 17.572 111.047 18.364C111.81 19.156 113.071 20.08 114.831 21.136L120.243 24.348C122.238 25.5507 123.646 26.6653 124.467 27.692C125.289 28.7187 125.699 30.024 125.699 31.608C125.699 34.072 124.878 36.052 123.235 37.548C121.593 39.0147 119.363 39.748 116.547 39.748ZM134.904 15.24C134.904 13.744 134.699 12.644 134.288 11.94C133.878 11.2067 133.056 10.84 131.824 10.84H130.944V9.96H134.904C135.99 9.96 136.796 10.1067 137.324 10.4C137.882 10.664 138.278 11.1627 138.512 11.896C138.747 12.6293 138.864 13.744 138.864 15.24V23.16H152.064V9.96H156.024V33.72C156.024 35.216 156.23 36.3307 156.64 37.064C157.051 37.768 157.872 38.12 159.104 38.12H159.984V39H156.024C154.939 39 154.118 38.868 153.56 38.604C153.032 38.3107 152.651 37.7973 152.416 37.064C152.182 36.3307 152.064 35.216 152.064 33.72V24.92H138.864V39H134.904V15.24ZM190.455 39.22C189.047 39.22 187.654 38.8387 186.275 38.076C184.897 37.284 183.797 35.7587 182.975 33.5L181.875 30.64H169.555L166.035 39H164.055L176.375 9.96H177.695L187.375 33.5C188.109 35.2013 188.798 36.3747 189.443 37.02C190.089 37.636 191.013 38.0027 192.215 38.12V39C191.687 39.1467 191.101 39.22 190.455 39.22ZM170.215 28.88H180.995L175.715 16.12L170.215 28.88ZM200.257 15.9V39H198.497V15.24C198.497 13.832 198.189 12.7467 197.573 11.984C196.986 11.2213 195.974 10.84 194.537 10.84H194.097V9.96H196.957C198.306 9.96 199.45 10.18 200.389 10.62C201.328 11.06 202.164 11.72 202.897 12.6L218.297 31.74V9.96H220.057V39.44H219.177L200.257 15.9Z" fill="#6E5E41"/>
<path d="M117.819 51.672C117.947 51.6507 118.043 51.688 118.107 51.784C118.181 51.88 118.197 51.9867 118.155 52.104C118.123 52.2213 118.043 52.2907 117.915 52.312C116.069 52.664 113.307 53.1973 109.627 53.912C105.957 54.616 103.205 55.144 101.371 55.496C100.848 61.9707 100.704 69.5013 100.939 78.088C100.939 78.216 100.885 78.312 100.779 78.376C100.683 78.4507 100.581 78.472 100.475 78.44C100.368 78.408 100.309 78.3227 100.299 78.184C100.192 77.096 100.096 76.184 100.011 75.448C99.9255 74.7227 99.7922 73.8373 99.6108 72.792C99.4402 71.7573 99.2428 70.8453 99.0188 70.056C98.8055 69.256 98.5175 68.4133 98.1548 67.528C97.7922 66.6427 97.3762 65.8267 96.9068 65.08C96.5655 64.5467 96.1922 64.0507 95.7868 63.592C95.3815 63.1333 94.9602 62.7227 94.5228 62.36C94.0962 61.9973 93.6322 61.672 93.1308 61.384C92.6295 61.0853 92.1282 60.8293 91.6268 60.616C91.1255 60.392 90.5868 60.1947 90.0108 60.024C89.4348 59.8427 88.8748 59.6987 88.3308 59.592C87.7868 59.4747 87.2055 59.3787 86.5868 59.304C85.9682 59.2187 85.3762 59.1547 84.8108 59.112C84.2562 59.0693 83.6588 59.0373 83.0188 59.016C82.8375 59.0053 82.7468 58.904 82.7468 58.712C82.7468 58.52 82.8375 58.408 83.0188 58.376L100.763 54.952C100.869 53.6613 100.992 52.4293 101.131 51.256C101.141 51.128 101.2 51.0427 101.307 51C101.424 50.9573 101.531 50.9733 101.627 51.048C101.733 51.112 101.781 51.208 101.771 51.336C101.643 52.4667 101.525 53.6293 101.419 54.824C102.635 54.6 104 54.344 105.515 54.056C107.04 53.7573 108.405 53.4907 109.611 53.256C110.827 53.0213 112.192 52.76 113.707 52.472C115.232 52.1733 116.603 51.9067 117.819 51.672ZM100.187 72.296C100.133 66.1947 100.309 60.6373 100.715 55.624C99.3175 55.8907 97.7068 56.2 95.8828 56.552C94.0588 56.904 92.2348 57.256 90.4108 57.608C88.5975 57.96 86.9922 58.2693 85.5948 58.536C86.7895 58.6533 87.8935 58.8293 88.9068 59.064C89.9202 59.288 90.9335 59.608 91.9468 60.024C92.9602 60.44 93.8988 60.9947 94.7628 61.688C95.6375 62.3813 96.4055 63.2027 97.0668 64.152C98.5175 66.2427 99.5575 68.9573 100.187 72.296ZM111.378 66.696C111.453 66.5893 111.549 66.5467 111.666 66.568C111.794 66.5893 111.88 66.6533 111.922 66.76C111.965 66.856 111.96 66.9627 111.906 67.08C111.512 67.624 110.978 68.12 110.306 68.568C109.645 69.016 109.021 69.224 108.434 69.192C108.253 69.1813 108.077 69.1387 107.906 69.064C107.746 68.9787 107.608 68.888 107.49 68.792C107.384 68.696 107.261 68.5573 107.122 68.376C106.984 68.1947 106.882 68.0507 106.818 67.944C106.754 67.8373 106.658 67.672 106.53 67.448C106.402 67.224 106.317 67.08 106.274 67.016C106.274 67.0053 106.226 66.904 106.13 66.712C106.034 66.52 105.938 66.3547 105.842 66.216C105.757 66.0773 105.682 65.9973 105.618 65.976C105.512 65.9653 105.416 65.976 105.33 66.008C105.245 66.04 105.176 66.0773 105.122 66.12C105.069 66.1627 105.016 66.2373 104.962 66.344C104.909 66.44 104.866 66.52 104.834 66.584C104.813 66.6373 104.781 66.728 104.738 66.856C104.696 66.9733 104.669 67.0427 104.658 67.064C104.584 67.2453 104.514 67.4533 104.45 67.688C104.397 67.9227 104.338 68.1627 104.274 68.408C104.21 68.6533 104.146 68.8667 104.082 69.048C104.05 69.144 104.024 69.2187 104.002 69.272C103.981 69.3253 103.949 69.4053 103.906 69.512C103.864 69.6187 103.821 69.704 103.778 69.768C103.746 69.8213 103.698 69.8853 103.634 69.96C103.57 70.0347 103.506 70.0827 103.442 70.104C103.378 70.1253 103.304 70.136 103.218 70.136C103.133 70.136 103.042 70.1093 102.946 70.056C102.808 69.992 102.738 69.88 102.738 69.72C102.781 65.3253 103.629 60.84 105.282 56.264C105.325 56.1467 105.405 56.0827 105.522 56.072C105.64 56.0507 105.736 56.088 105.81 56.184C105.896 56.2693 105.917 56.376 105.874 56.504C104.69 59.8 103.922 63.1173 103.57 66.456C103.528 66.8507 103.469 67.5973 103.394 68.696V69.256C103.394 69.2453 103.41 69.1653 103.442 69.016L103.522 68.68C103.533 68.616 103.565 68.488 103.618 68.296C103.672 68.104 103.709 67.9653 103.73 67.88C103.752 67.784 103.784 67.6507 103.826 67.48C103.88 67.3093 103.922 67.1707 103.954 67.064C103.997 66.9573 104.045 66.8347 104.098 66.696C104.152 66.5573 104.21 66.4293 104.274 66.312C104.424 66.0027 104.594 65.7573 104.786 65.576C104.978 65.384 105.197 65.288 105.442 65.288C105.698 65.2773 105.944 65.4053 106.178 65.672C106.381 65.8853 106.626 66.2853 106.914 66.872C107.213 67.4587 107.485 67.864 107.73 68.088C108.029 68.3333 108.344 68.456 108.674 68.456C109.016 68.456 109.362 68.36 109.714 68.168C110.066 67.9653 110.381 67.7413 110.658 67.496C110.946 67.24 111.186 66.9733 111.378 66.696ZM117.628 66.616C117.724 66.52 117.826 66.4987 117.932 66.552C118.039 66.5947 118.103 66.6747 118.124 66.792C118.156 66.8987 118.13 67.0053 118.044 67.112C115.847 69.3627 113.948 70.296 112.348 69.912C111.783 69.784 111.356 69.5387 111.068 69.176C110.78 68.8027 110.668 68.392 110.732 67.944C110.786 67.4853 110.994 67.048 111.356 66.632C111.644 66.3227 112.018 66.072 112.476 65.88C113.159 65.6027 113.495 65.7733 113.484 66.392C113.484 66.4027 113.484 66.4133 113.484 66.424C113.474 66.84 113.223 67.2347 112.732 67.608C112.242 67.9813 111.799 68.104 111.404 67.976C111.362 68.456 111.564 68.8133 112.012 69.048C112.46 69.2827 112.951 69.352 113.484 69.256C114.242 69.1173 114.946 68.824 115.596 68.376C116.258 67.9173 116.935 67.3307 117.628 66.616ZM112.556 66.52C112.407 66.5307 112.242 66.6213 112.06 66.792C111.89 66.9627 111.74 67.1493 111.612 67.352C111.836 67.4587 112.108 67.3307 112.428 66.968C112.642 66.7227 112.7 66.5733 112.604 66.52C112.594 66.52 112.578 66.52 112.556 66.52ZM125.251 53.448C125.379 53.8427 125.475 54.264 125.539 54.712C125.614 55.16 125.651 55.624 125.651 56.104C125.651 56.5733 125.635 57.0267 125.603 57.464C125.582 57.8907 125.529 58.3707 125.443 58.904C125.369 59.4373 125.299 59.896 125.235 60.28C125.171 60.6533 125.086 61.1173 124.979 61.672C124.883 62.216 124.814 62.6373 124.771 62.936C124.675 63.512 124.505 64.472 124.259 65.816C124.025 67.1493 123.843 68.1947 123.715 68.952C123.598 69.7093 123.475 70.648 123.347 71.768C123.23 72.888 123.161 73.9173 123.139 74.856C123.139 74.984 123.081 75.0693 122.963 75.112C122.857 75.1547 122.75 75.144 122.643 75.08C122.547 75.016 122.499 74.92 122.499 74.792C122.531 73.416 122.665 71.88 122.899 70.184C123.145 68.488 123.401 66.968 123.667 65.624C123.945 64.28 124.206 62.76 124.451 61.064C124.707 59.368 124.857 57.8373 124.899 56.472C124.91 56.088 124.915 55.8 124.915 55.608C124.915 55.416 124.905 55.144 124.883 54.792C124.862 54.44 124.814 54.1307 124.739 53.864C124.665 53.5867 124.563 53.3413 124.435 53.128C124.222 52.7867 123.971 52.5733 123.683 52.488C123.395 52.4027 123.097 52.4347 122.787 52.584C122.489 52.7333 122.211 52.9147 121.955 53.128C121.699 53.3307 121.459 53.56 121.235 53.816C120.361 54.84 119.63 56.1093 119.043 57.624C118.457 59.128 118.206 60.504 118.291 61.752C118.302 61.944 118.211 62.0613 118.019 62.104C117.817 62.1467 117.694 62.0827 117.651 61.912C117.651 61.8907 117.651 61.8693 117.651 61.848C117.566 60.4507 117.843 58.9307 118.483 57.288C119.123 55.6347 119.939 54.2693 120.931 53.192C121.294 52.7973 121.683 52.488 122.099 52.264C122.515 52.0293 122.921 51.896 123.315 51.864C123.721 51.8213 124.094 51.9333 124.435 52.2C124.787 52.4667 125.059 52.8827 125.251 53.448ZM136.181 66.664C136.266 66.568 136.367 66.5307 136.485 66.552C136.613 66.5733 136.698 66.6373 136.741 66.744C136.794 66.84 136.783 66.9413 136.709 67.048C136.442 67.3787 136.127 67.72 135.765 68.072C135.402 68.424 134.975 68.776 134.485 69.128C133.994 69.4693 133.514 69.7413 133.045 69.944C132.575 70.136 132.095 70.2107 131.605 70.168C131.114 70.1147 130.693 69.9013 130.341 69.528C130.149 69.3147 129.887 69 129.557 68.584C129.237 68.168 129.002 67.8747 128.853 67.704C128.757 67.608 128.666 67.5333 128.581 67.48C128.495 67.416 128.421 67.3733 128.357 67.352C128.293 67.3307 128.223 67.336 128.149 67.368C128.074 67.4 128.01 67.432 127.957 67.464C127.914 67.4853 127.855 67.5387 127.781 67.624C127.706 67.7093 127.653 67.7787 127.621 67.832C127.589 67.8853 127.53 67.976 127.445 68.104C127.359 68.2213 127.301 68.3013 127.269 68.344C127.215 68.4293 127.071 68.7013 126.837 69.16C126.613 69.608 126.378 69.992 126.133 70.312C125.898 70.6213 125.674 70.792 125.461 70.824C125.333 70.8453 125.231 70.808 125.157 70.712C125.082 70.6053 125.029 70.4933 124.997 70.376C124.954 70.248 124.938 70.0987 124.949 69.928C124.959 69.7467 124.97 69.608 124.981 69.512C124.991 69.416 125.018 69.2613 125.061 69.048C125.103 68.8347 125.13 68.712 125.141 68.68C125.205 68.2747 125.327 67.6987 125.509 66.952C125.69 66.1947 125.797 65.7413 125.829 65.592C125.861 65.4747 125.935 65.3947 126.053 65.352C126.17 65.3093 126.277 65.32 126.373 65.384C126.469 65.448 126.501 65.544 126.469 65.672C126.415 65.9067 126.325 66.296 126.197 66.84C126.069 67.3733 125.973 67.784 125.909 68.072C125.781 68.7013 125.701 69.1387 125.669 69.384C125.669 69.416 125.669 69.464 125.669 69.528C125.754 69.368 125.861 69.1973 125.989 69.016C126.127 68.8347 126.271 68.6427 126.421 68.44C126.57 68.2373 126.677 68.0827 126.741 67.976C126.773 67.9333 126.815 67.8693 126.869 67.784C126.933 67.6987 126.986 67.624 127.029 67.56C127.071 67.496 127.119 67.4267 127.173 67.352C127.237 67.2667 127.295 67.192 127.349 67.128C127.402 67.064 127.461 67 127.525 66.936C127.589 66.872 127.653 66.8133 127.717 66.76C127.791 66.7067 127.861 66.664 127.925 66.632C128.095 66.5893 128.245 66.568 128.373 66.568C128.501 66.568 128.639 66.616 128.789 66.712C128.938 66.808 129.066 66.9093 129.173 67.016C129.29 67.1227 129.413 67.256 129.541 67.416C129.679 67.576 129.791 67.7253 129.877 67.864C129.973 67.992 130.069 68.1307 130.165 68.28C130.271 68.4293 130.362 68.5467 130.437 68.632C130.81 69.0907 131.146 69.3627 131.445 69.448C131.743 69.5227 132.17 69.4587 132.725 69.256C134.026 68.776 135.178 67.912 136.181 66.664ZM140.244 60.856C140.116 61.912 140.02 62.7493 139.956 63.368C139.892 63.9867 139.833 64.7867 139.78 65.768C139.726 66.7493 139.716 67.5973 139.748 68.312C139.79 69.016 139.876 69.7947 140.004 70.648C140.142 71.5013 140.34 72.3013 140.596 73.048C140.638 73.176 140.617 73.2827 140.532 73.368C140.457 73.464 140.361 73.5067 140.244 73.496C140.126 73.496 140.046 73.432 140.004 73.304C139.3 71.2667 139.012 68.792 139.14 65.88C138.532 67.6613 137.705 69.1013 136.66 70.2C136.478 70.4027 136.27 70.568 136.036 70.696C135.812 70.824 135.593 70.9093 135.38 70.952C135.166 70.9947 134.985 70.936 134.836 70.776C134.686 70.616 134.606 70.36 134.596 70.008C134.585 69.3147 134.825 68.6 135.316 67.864C135.796 67.1173 136.356 66.6267 136.996 66.392C137.188 66.328 137.326 66.3867 137.412 66.568C137.497 66.76 137.449 66.8987 137.268 66.984C136.553 67.24 135.988 67.8587 135.572 68.84C135.22 69.6507 135.166 70.0933 135.412 70.168C135.561 70.2 135.822 70.0613 136.196 69.752C136.985 69.0907 137.684 67.8853 138.292 66.136C139.06 63.896 139.625 60.984 139.988 57.4C139.998 57.272 140.057 57.1867 140.164 57.144C140.281 57.1013 140.388 57.112 140.484 57.176C140.59 57.24 140.638 57.336 140.628 57.464C140.596 57.784 140.558 58.1573 140.516 58.584C140.42 59.4587 140.329 60.216 140.244 60.856ZM141.393 66.296C141.447 66.1787 141.532 66.1147 141.649 66.104C141.767 66.0933 141.863 66.1307 141.937 66.216C142.023 66.3013 142.044 66.408 142.001 66.536C141.457 67.9013 141.196 69.288 141.217 70.696C141.217 70.8773 141.127 70.968 140.945 70.968C140.753 70.968 140.636 70.8827 140.593 70.712C140.583 70.68 140.577 70.648 140.577 70.616C140.556 69.176 140.828 67.736 141.393 66.296ZM142.465 64.456C142.54 64.6373 142.487 64.7813 142.305 64.888L141.169 65.56C141.095 65.6027 141.015 65.608 140.929 65.576C140.844 65.5333 140.785 65.4747 140.753 65.4C140.679 65.2293 140.732 65.0853 140.913 64.968L142.049 64.296C142.124 64.2533 142.204 64.2533 142.289 64.296C142.375 64.328 142.433 64.3813 142.465 64.456ZM151.588 66.664C151.673 66.568 151.769 66.5467 151.876 66.6C151.993 66.6427 152.063 66.7227 152.084 66.84C152.105 66.9467 152.073 67.0533 151.988 67.16C151.785 67.3627 151.524 67.592 151.204 67.848C150.895 68.0933 150.532 68.3547 150.116 68.632C149.711 68.9093 149.3 69.1387 148.884 69.32C148.479 69.4907 148.089 69.608 147.716 69.672C147.353 69.736 147.033 69.6827 146.756 69.512C146.489 69.3307 146.313 69.0213 146.228 68.584C146.143 68.648 146.036 68.7333 145.908 68.84C145.791 68.936 145.684 69.0267 145.588 69.112C145.492 69.1867 145.38 69.272 145.252 69.368C145.124 69.4533 145.007 69.5333 144.9 69.608C144.793 69.672 144.676 69.736 144.548 69.8C144.42 69.8533 144.292 69.896 144.164 69.928C144.047 69.9493 143.919 69.9653 143.78 69.976C143.652 69.976 143.524 69.9547 143.396 69.912C143.151 69.848 142.959 69.72 142.82 69.528C142.692 69.336 142.628 69.128 142.628 68.904C142.628 68.68 142.66 68.4453 142.724 68.2C142.852 67.7413 143.087 67.3467 143.428 67.016C143.769 66.6853 144.153 66.4507 144.58 66.312C145.007 66.1733 145.455 66.1253 145.924 66.168C146.404 66.2 146.841 66.3333 147.236 66.568C147.428 66.6747 147.455 66.8133 147.316 66.984C147.188 67.1547 147.039 67.1867 146.868 67.08C146.057 66.6107 145.231 66.6267 144.388 67.128C144.217 67.2347 144.057 67.352 143.908 67.48C143.769 67.608 143.636 67.7627 143.508 67.944C143.38 68.1147 143.316 68.2853 143.316 68.456C143.327 68.616 143.401 68.7867 143.54 68.968C143.689 69.128 143.86 69.208 144.052 69.208C144.244 69.208 144.441 69.1493 144.644 69.032C144.847 68.904 145.039 68.7653 145.22 68.616C145.412 68.4667 145.615 68.3013 145.828 68.12C146.052 67.9387 146.228 67.8053 146.356 67.72C146.463 67.656 146.564 67.6667 146.66 67.752C146.756 67.8373 146.804 67.9387 146.804 68.056C146.825 69.2507 147.631 69.3787 149.22 68.44C150.073 67.9387 150.841 67.368 151.524 66.728C151.545 66.696 151.567 66.6747 151.588 66.664ZM162.274 66.664C162.36 66.568 162.461 66.5307 162.578 66.552C162.706 66.5733 162.792 66.6373 162.834 66.744C162.888 66.84 162.877 66.9413 162.802 67.048C162.536 67.3787 162.221 67.72 161.858 68.072C161.496 68.424 161.069 68.776 160.578 69.128C160.088 69.4693 159.608 69.7413 159.138 69.944C158.669 70.136 158.189 70.2107 157.698 70.168C157.208 70.1147 156.786 69.9013 156.434 69.528C156.242 69.3147 155.981 69 155.65 68.584C155.33 68.168 155.096 67.8747 154.946 67.704C154.85 67.608 154.76 67.5333 154.674 67.48C154.589 67.416 154.514 67.3733 154.45 67.352C154.386 67.3307 154.317 67.336 154.242 67.368C154.168 67.4 154.104 67.432 154.05 67.464C154.008 67.4853 153.949 67.5387 153.874 67.624C153.8 67.7093 153.746 67.7787 153.714 67.832C153.682 67.8853 153.624 67.976 153.538 68.104C153.453 68.2213 153.394 68.3013 153.362 68.344C153.309 68.4293 153.165 68.7013 152.93 69.16C152.706 69.608 152.472 69.992 152.226 70.312C151.992 70.6213 151.768 70.792 151.554 70.824C151.426 70.8453 151.325 70.808 151.25 70.712C151.176 70.6053 151.122 70.4933 151.09 70.376C151.048 70.248 151.032 70.0987 151.042 69.928C151.053 69.7467 151.064 69.608 151.074 69.512C151.085 69.416 151.112 69.2613 151.154 69.048C151.197 68.8347 151.224 68.712 151.234 68.68C151.298 68.2747 151.421 67.6987 151.602 66.952C151.784 66.1947 151.89 65.7413 151.922 65.592C151.954 65.4747 152.029 65.3947 152.146 65.352C152.264 65.3093 152.37 65.32 152.466 65.384C152.562 65.448 152.594 65.544 152.562 65.672C152.509 65.9067 152.418 66.296 152.29 66.84C152.162 67.3733 152.066 67.784 152.002 68.072C151.874 68.7013 151.794 69.1387 151.762 69.384C151.762 69.416 151.762 69.464 151.762 69.528C151.848 69.368 151.954 69.1973 152.082 69.016C152.221 68.8347 152.365 68.6427 152.514 68.44C152.664 68.2373 152.77 68.0827 152.834 67.976C152.866 67.9333 152.909 67.8693 152.962 67.784C153.026 67.6987 153.08 67.624 153.122 67.56C153.165 67.496 153.213 67.4267 153.266 67.352C153.33 67.2667 153.389 67.192 153.442 67.128C153.496 67.064 153.554 67 153.618 66.936C153.682 66.872 153.746 66.8133 153.81 66.76C153.885 66.7067 153.954 66.664 154.018 66.632C154.189 66.5893 154.338 66.568 154.466 66.568C154.594 66.568 154.733 66.616 154.882 66.712C155.032 66.808 155.16 66.9093 155.266 67.016C155.384 67.1227 155.506 67.256 155.634 67.416C155.773 67.576 155.885 67.7253 155.97 67.864C156.066 67.992 156.162 68.1307 156.258 68.28C156.365 68.4293 156.456 68.5467 156.53 68.632C156.904 69.0907 157.24 69.3627 157.538 69.448C157.837 69.5227 158.264 69.4587 158.818 69.256C160.12 68.776 161.272 67.912 162.274 66.664ZM193.591 67.224C193.719 67.1707 193.825 67.1867 193.911 67.272C194.007 67.3467 194.049 67.4427 194.039 67.56C194.039 67.6773 193.98 67.7627 193.863 67.816C191.708 68.6587 189.623 69.5973 187.607 70.632C188.705 71.176 189.26 71.864 189.271 72.696C189.271 73.0693 189.164 73.4587 188.951 73.864C188.748 74.2693 188.492 74.6373 188.183 74.968C187.884 75.3093 187.527 75.6507 187.111 75.992C186.705 76.344 186.337 76.632 186.007 76.856C185.687 77.08 185.356 77.2987 185.015 77.512C182.636 78.9733 180.711 79.528 179.239 79.176C178.844 79.0907 178.545 78.9413 178.343 78.728C178.14 78.5147 178.033 78.264 178.023 77.976C178.012 77.6987 178.049 77.4107 178.135 77.112C178.231 76.824 178.369 76.52 178.551 76.2C178.721 75.8907 178.919 75.592 179.143 75.304C179.377 75.0267 179.644 74.76 179.943 74.504C180.241 74.248 180.519 74.0187 180.775 73.816C181.041 73.6133 181.361 73.3947 181.735 73.16C182.119 72.9253 182.433 72.7333 182.679 72.584C182.935 72.4453 183.271 72.2587 183.687 72.024C184.113 71.8 184.428 71.6293 184.631 71.512C185.025 71.2773 185.489 71.016 186.023 70.728C185.745 70.632 185.463 70.5413 185.175 70.456C184.887 70.3707 184.577 70.2907 184.247 70.216C183.916 70.1413 183.628 70.0773 183.383 70.024C183.137 69.9707 182.817 69.9173 182.423 69.864C182.039 69.8 181.751 69.752 181.559 69.72C181.367 69.688 181.047 69.6507 180.599 69.608C180.151 69.5547 179.857 69.5227 179.719 69.512C179.58 69.4907 179.26 69.4533 178.759 69.4C178.268 69.3467 177.98 69.32 177.895 69.32C176.796 69.2027 176.039 69.1227 175.623 69.08C175.207 69.0267 174.556 68.936 173.671 68.808C172.785 68.68 172.001 68.536 171.319 68.376C170.647 68.2053 169.991 68.008 169.351 67.784C167.367 67.0907 166.524 66.056 166.823 64.68C166.855 64.5093 166.919 64.3333 167.015 64.152C167.111 63.9707 167.196 63.8213 167.271 63.704C167.345 63.5867 167.473 63.4373 167.655 63.256C167.847 63.064 167.975 62.9413 168.039 62.888C168.103 62.824 168.252 62.6907 168.487 62.488C168.732 62.2853 168.871 62.1733 168.903 62.152C169.959 61.2347 171.095 60.3973 172.311 59.64C174.668 58.1467 177.18 57.016 179.847 56.248C179.921 56.216 180.076 56.168 180.311 56.104C180.556 56.0293 180.753 55.9707 180.903 55.928C181.052 55.8853 181.255 55.832 181.511 55.768C181.767 55.6933 181.985 55.6453 182.167 55.624C182.359 55.6027 182.577 55.5867 182.823 55.576C183.068 55.5547 183.281 55.5653 183.463 55.608C183.644 55.64 183.825 55.6933 184.007 55.768C184.199 55.832 184.364 55.9333 184.503 56.072C184.652 56.2107 184.775 56.376 184.871 56.568C184.945 56.7707 184.983 56.968 184.983 57.16C184.983 57.3413 184.924 57.5387 184.807 57.752C184.689 57.9653 184.561 58.1573 184.423 58.328C184.295 58.4987 184.135 58.6747 183.943 58.856C183.751 59.0373 183.58 59.192 183.431 59.32C183.281 59.4373 183.127 59.5493 182.967 59.656C182.86 59.7307 182.748 59.7413 182.631 59.688C182.513 59.6347 182.444 59.5547 182.423 59.448C182.412 59.3413 182.455 59.2453 182.551 59.16C183.351 58.6053 183.847 58.12 184.039 57.704C184.177 57.384 184.209 57.1173 184.135 56.904C184.06 56.68 183.911 56.5307 183.687 56.456C183.463 56.3813 183.207 56.328 182.919 56.296C182.631 56.264 182.348 56.28 182.071 56.344C180.759 56.5467 179.105 57.0587 177.111 57.88C173.655 59.2987 170.727 61.1813 168.327 63.528C166.673 65.1387 167.303 66.4187 170.215 67.368C171.527 67.7947 173.367 68.152 175.735 68.44C176.225 68.4933 176.951 68.568 177.911 68.664C178.871 68.76 179.644 68.8453 180.231 68.92C180.817 68.984 181.521 69.0853 182.343 69.224C183.164 69.352 183.911 69.5013 184.583 69.672C185.681 69.9387 186.433 70.1467 186.839 70.296C188.993 69.176 191.244 68.152 193.591 67.224ZM187.015 71.128C186.993 71.1173 186.961 71.1013 186.919 71.08C186.876 71.0587 186.844 71.0427 186.823 71.032C185.788 71.5867 184.807 72.1413 183.879 72.696C183.74 72.7813 183.436 72.952 182.967 73.208C182.508 73.4747 182.161 73.6827 181.927 73.832C181.692 73.9813 181.393 74.1787 181.031 74.424C180.668 74.68 180.359 74.936 180.103 75.192C179.847 75.448 179.617 75.72 179.415 76.008C179.244 76.264 179.105 76.5147 178.999 76.76C178.892 77.0053 178.817 77.256 178.775 77.512C178.743 77.768 178.801 77.992 178.951 78.184C179.111 78.376 179.361 78.5147 179.703 78.6C179.777 78.6213 179.863 78.632 179.959 78.632C180.065 78.632 180.161 78.632 180.247 78.632C180.332 78.632 180.439 78.616 180.567 78.584C180.695 78.5627 180.791 78.5467 180.855 78.536C180.929 78.5253 181.036 78.4987 181.175 78.456C181.324 78.4133 181.42 78.3813 181.463 78.36C181.505 78.3493 181.601 78.3173 181.751 78.264C181.9 78.2213 181.98 78.2 181.991 78.2C182.812 77.9333 183.852 77.3787 185.111 76.536C186.967 75.288 188.039 74.168 188.327 73.176C188.583 72.3013 188.145 71.6187 187.015 71.128ZM195.224 66.52C195.725 66.648 196.077 66.9573 196.28 67.448C196.482 67.928 196.493 68.4133 196.312 68.904C196.152 69.3733 195.912 69.8053 195.592 70.2C195.272 70.5947 194.909 70.8027 194.504 70.824C194.088 70.8453 193.784 70.7013 193.592 70.392C193.41 70.0827 193.357 69.7253 193.432 69.32C193.581 68.488 194.013 67.656 194.728 66.824C194.749 66.8027 194.776 66.7813 194.808 66.76C194.882 66.5573 195.021 66.4773 195.224 66.52ZM194.168 70.088C194.37 70.2693 194.674 70.1467 195.08 69.72C195.549 69.2293 195.8 68.7173 195.832 68.184C195.864 67.7253 195.666 67.4 195.24 67.208C195.154 67.304 195.064 67.4213 194.968 67.56C194.872 67.688 194.76 67.848 194.632 68.04C194.504 68.232 194.392 68.424 194.296 68.616C194.2 68.808 194.12 69 194.056 69.192C193.992 69.3733 193.965 69.544 193.976 69.704C193.997 69.864 194.061 69.992 194.168 70.088ZM203.223 66.536C203.34 66.3547 203.49 66.3333 203.671 66.472C203.831 66.6 203.858 66.7493 203.751 66.92C203.26 67.6773 202.556 68.472 201.639 69.304C200.018 70.7973 198.786 71.2987 197.943 70.808C197.559 70.584 197.282 70.1413 197.111 69.48C196.908 68.7227 196.972 67.928 197.303 67.096C197.634 66.264 198.13 65.624 198.791 65.176C199.196 64.8987 199.527 64.808 199.783 64.904C200.05 64.9893 200.236 65.1813 200.343 65.48C200.46 65.768 200.503 66.1253 200.471 66.552C200.46 66.68 200.396 66.7653 200.279 66.808C200.172 66.8507 200.066 66.84 199.959 66.776C199.863 66.7013 199.82 66.6 199.831 66.472C199.852 66.12 199.778 65.9013 199.607 65.816C199.447 65.7307 199.255 65.7467 199.031 65.864C198.818 65.9813 198.631 66.1413 198.471 66.344C198.119 66.7813 197.874 67.3307 197.735 67.992C197.639 68.4293 197.639 68.8507 197.735 69.256C197.842 69.6507 198.044 69.9493 198.343 70.152C198.652 70.344 199.079 70.312 199.623 70.056C200.295 69.736 200.94 69.256 201.559 68.616C202.188 67.976 202.743 67.2827 203.223 66.536ZM203.393 66.296C203.447 66.1787 203.532 66.1147 203.649 66.104C203.767 66.0933 203.863 66.1307 203.937 66.216C204.023 66.3013 204.044 66.408 204.001 66.536C203.457 67.9013 203.196 69.288 203.217 70.696C203.217 70.8773 203.127 70.968 202.945 70.968C202.753 70.968 202.636 70.8827 202.593 70.712C202.583 70.68 202.577 70.648 202.577 70.616C202.556 69.176 202.828 67.736 203.393 66.296ZM204.465 64.456C204.54 64.6373 204.487 64.7813 204.305 64.888L203.169 65.56C203.095 65.6027 203.015 65.608 202.929 65.576C202.844 65.5333 202.785 65.4747 202.753 65.4C202.679 65.2293 202.732 65.0853 202.913 64.968L204.049 64.296C204.124 64.2533 204.204 64.2533 204.289 64.296C204.375 64.328 204.433 64.3813 204.465 64.456ZM213.588 66.664C213.673 66.568 213.769 66.5467 213.876 66.6C213.993 66.6427 214.063 66.7227 214.084 66.84C214.105 66.9467 214.073 67.0533 213.988 67.16C213.785 67.3627 213.524 67.592 213.204 67.848C212.895 68.0933 212.532 68.3547 212.116 68.632C211.711 68.9093 211.3 69.1387 210.884 69.32C210.479 69.4907 210.089 69.608 209.716 69.672C209.353 69.736 209.033 69.6827 208.756 69.512C208.489 69.3307 208.313 69.0213 208.228 68.584C208.143 68.648 208.036 68.7333 207.908 68.84C207.791 68.936 207.684 69.0267 207.588 69.112C207.492 69.1867 207.38 69.272 207.252 69.368C207.124 69.4533 207.007 69.5333 206.9 69.608C206.793 69.672 206.676 69.736 206.548 69.8C206.42 69.8533 206.292 69.896 206.164 69.928C206.047 69.9493 205.919 69.9653 205.78 69.976C205.652 69.976 205.524 69.9547 205.396 69.912C205.151 69.848 204.959 69.72 204.82 69.528C204.692 69.336 204.628 69.128 204.628 68.904C204.628 68.68 204.66 68.4453 204.724 68.2C204.852 67.7413 205.087 67.3467 205.428 67.016C205.769 66.6853 206.153 66.4507 206.58 66.312C207.007 66.1733 207.455 66.1253 207.924 66.168C208.404 66.2 208.841 66.3333 209.236 66.568C209.428 66.6747 209.455 66.8133 209.316 66.984C209.188 67.1547 209.039 67.1867 208.868 67.08C208.057 66.6107 207.231 66.6267 206.388 67.128C206.217 67.2347 206.057 67.352 205.908 67.48C205.769 67.608 205.636 67.7627 205.508 67.944C205.38 68.1147 205.316 68.2853 205.316 68.456C205.327 68.616 205.401 68.7867 205.54 68.968C205.689 69.128 205.86 69.208 206.052 69.208C206.244 69.208 206.441 69.1493 206.644 69.032C206.847 68.904 207.039 68.7653 207.22 68.616C207.412 68.4667 207.615 68.3013 207.828 68.12C208.052 67.9387 208.228 67.8053 208.356 67.72C208.463 67.656 208.564 67.6667 208.66 67.752C208.756 67.8373 208.804 67.9387 208.804 68.056C208.825 69.2507 209.631 69.3787 211.22 68.44C212.073 67.9387 212.841 67.368 213.524 66.728C213.545 66.696 213.567 66.6747 213.588 66.664ZM220.69 66.84C220.84 66.68 221 66.6693 221.17 66.808C221.341 66.936 221.357 67.0747 221.218 67.224C220.962 67.5013 220.717 67.7573 220.482 67.992C220.258 68.216 219.938 68.5147 219.522 68.888C219.117 69.2507 218.738 69.56 218.386 69.816C218.034 70.072 217.634 70.312 217.186 70.536C216.749 70.76 216.349 70.904 215.986 70.968C215.624 71.0213 215.261 70.9787 214.898 70.84C214.546 70.7013 214.237 70.44 213.97 70.056C213.821 69.832 213.704 69.56 213.618 69.24C213.533 68.92 213.485 68.6213 213.474 68.344C213.453 68.056 213.458 67.7093 213.49 67.304C213.522 66.8987 213.554 66.5733 213.586 66.328C213.629 66.0827 213.688 65.752 213.762 65.336C213.848 64.9093 213.901 64.6267 213.922 64.488C213.997 64.0293 214.077 63.56 214.162 63.08C214.258 62.6 214.365 62.104 214.482 61.592C214.61 61.0693 214.722 60.616 214.818 60.232C214.914 59.848 215.037 59.352 215.186 58.744C215.336 58.136 215.453 57.672 215.538 57.352C215.581 57.192 215.688 57.128 215.858 57.16C216.029 57.1813 216.125 57.2667 216.146 57.416C216.221 57.768 216.264 58.0987 216.274 58.408C216.285 58.7173 216.264 59.032 216.21 59.352C216.157 59.6613 216.093 59.9493 216.018 60.216C215.944 60.4827 215.837 60.808 215.698 61.192C215.666 61.2987 215.597 61.3627 215.49 61.384C215.384 61.4053 215.293 61.384 215.218 61.32C214.738 63.3893 214.434 65.1653 214.306 66.648C214.296 66.7227 214.274 66.888 214.242 67.144C214.221 67.3893 214.2 67.5973 214.178 67.768C214.168 67.928 214.157 68.12 214.146 68.344C214.146 68.568 214.162 68.7707 214.194 68.952C214.226 69.1333 214.28 69.2827 214.354 69.4C214.45 69.5813 214.557 69.736 214.674 69.864C214.792 69.9813 214.904 70.0773 215.01 70.152C215.117 70.2267 215.25 70.2693 215.41 70.28C215.57 70.2907 215.698 70.3013 215.794 70.312C215.89 70.312 216.029 70.28 216.21 70.216C216.392 70.1413 216.52 70.0933 216.594 70.072C216.68 70.04 216.813 69.9653 216.994 69.848C217.186 69.7307 217.304 69.6613 217.346 69.64C217.4 69.608 217.517 69.528 217.698 69.4C217.89 69.2613 217.986 69.192 217.986 69.192C218.957 68.5093 219.858 67.7253 220.69 66.84Z" fill="white" fill-opacity="0.5"/>
</svg>
